<svg width="200" height="40" viewBox="0 0 490.48 95.44" xmlns="http://www.w3.org/2000/svg"><g id="svgGroup" stroke-linecap="round" fill-rule="nonzero" font-size="9pt" stroke="#ffffff" stroke-width="0.25mm" fill="#ffffff" style="stroke:#ffffff;stroke-width:0.25mm;fill:#ffffff"><path d="M 54.538 57.077 Q 54.851 54.6 55.88 51.04 Q 57.36 45.92 59.76 39.84 Q 62.16 33.76 65.2 27.28 A 225.335 225.335 0 0 1 69.016 19.524 A 189.996 189.996 0 0 1 71.32 15.2 Q 74.075 10.191 76.639 6.398 A 76.91 76.91 0 0 1 77.24 5.52 Q 80.08 1.44 82.08 0 A 3.856 3.856 0 0 1 83.099 0.223 Q 83.778 0.465 84.52 0.96 Q 85.84 1.84 86.96 3.08 A 14.49 14.49 0 0 1 88.594 5.258 A 13.169 13.169 0 0 1 88.84 5.68 A 7.332 7.332 0 0 1 89.273 6.587 Q 89.467 7.084 89.546 7.546 A 3.639 3.639 0 0 1 89.6 8.16 A 41.826 41.826 0 0 0 86.199 11.22 Q 84.257 13.159 82.28 15.56 Q 78.56 20.08 75.2 25.48 Q 71.84 30.88 69 36.92 Q 66.16 42.96 64.24 48.8 A 76.551 76.551 0 0 1 67.534 43.613 A 64.924 64.924 0 0 1 69.6 40.8 Q 72.4 37.2 75.2 34.64 A 31.922 31.922 0 0 1 77.627 32.622 Q 78.98 31.612 80.303 30.883 A 19.229 19.229 0 0 1 80.68 30.68 A 14.744 14.744 0 0 1 82.892 29.734 Q 84.373 29.246 85.76 29.2 Q 89.28 31.76 89.28 36 A 13.447 13.447 0 0 1 88.594 40.186 A 15.832 15.832 0 0 1 88.24 41.16 Q 87.2 43.76 85.48 45.96 Q 83.76 48.16 81.56 49.72 Q 79.36 51.28 76.96 51.76 A 46.269 46.269 0 0 0 78.624 56.542 A 51.828 51.828 0 0 0 79 57.44 Q 80.24 60.32 81.96 63.04 Q 83.68 65.76 85.88 68.08 Q 88.08 70.4 90.88 72 Q 90.505 72.75 89.779 73.5 A 8.842 8.842 0 0 1 89.68 73.6 Q 88.88 74.4 87.76 75 A 11.438 11.438 0 0 1 85.688 75.854 A 12.918 12.918 0 0 1 85.32 75.96 A 10.003 10.003 0 0 1 83.121 76.311 A 9.177 9.177 0 0 1 82.72 76.32 A 4.483 4.483 0 0 1 80.285 75.578 Q 79.639 75.169 79.023 74.534 A 9.401 9.401 0 0 1 78.68 74.16 Q 76.8 72 75.28 67.92 Q 74.362 65.409 73.49 62.147 A 104.893 104.893 0 0 1 72.96 60.08 Q 71.84 55.52 70.96 50.56 A 17.446 17.446 0 0 0 71.715 50.044 Q 72.546 49.445 73.608 48.566 A 56.809 56.809 0 0 0 73.76 48.44 Q 75.44 47.04 77.28 45.2 A 41.963 41.963 0 0 0 80.319 41.965 Q 83.211 38.506 84.013 35.594 A 8.105 8.105 0 0 0 84.32 33.44 A 0.65 0.65 0 0 0 84.254 33.138 Q 84.115 32.868 83.679 32.814 A 1.935 1.935 0 0 0 83.44 32.8 A 4.908 4.908 0 0 0 82.19 33.042 Q 81.047 33.409 79.68 34.32 A 21.329 21.329 0 0 0 77.808 35.734 Q 76.491 36.84 75.08 38.32 Q 72.64 40.88 70.12 44.32 A 81.415 81.415 0 0 0 66.157 50.28 A 92.031 92.031 0 0 0 65.28 51.76 A 21.014 21.014 0 0 0 64.264 53.683 A 27.449 27.449 0 0 0 63.52 55.44 Q 62.72 57.52 62.12 59.72 Q 61.52 61.92 61.2 64.08 A 30.804 30.804 0 0 0 60.946 66.347 A 23.811 23.811 0 0 0 60.88 68.08 A 8.659 8.659 0 0 0 60.909 68.803 Q 60.939 69.165 61.002 69.474 A 3.869 3.869 0 0 0 61.12 69.92 A 9.858 9.858 0 0 1 60.127 69.777 Q 59.119 69.574 58.571 69.179 A 1.61 1.61 0 0 1 58.08 68.64 Q 57.508 67.781 57.095 67.211 A 23.373 23.373 0 0 0 57 67.08 Q 56.56 66.48 56.08 66.08 Q 55.36 65.52 54.88 63.68 Q 54.532 62.343 54.436 60.499 A 28.298 28.298 0 0 1 54.4 59.04 A 15.767 15.767 0 0 1 54.538 57.077 Z M 285.738 57.077 Q 286.051 54.6 287.08 51.04 Q 288.56 45.92 290.96 39.84 Q 293.36 33.76 296.4 27.28 A 225.335 225.335 0 0 1 300.216 19.524 A 189.996 189.996 0 0 1 302.52 15.2 Q 305.275 10.191 307.839 6.398 A 76.91 76.91 0 0 1 308.44 5.52 Q 311.28 1.44 313.28 0 A 3.856 3.856 0 0 1 314.299 0.223 Q 314.978 0.465 315.72 0.96 Q 317.04 1.84 318.16 3.08 A 14.49 14.49 0 0 1 319.794 5.258 A 13.169 13.169 0 0 1 320.04 5.68 A 7.332 7.332 0 0 1 320.473 6.587 Q 320.667 7.084 320.746 7.546 A 3.639 3.639 0 0 1 320.8 8.16 A 41.826 41.826 0 0 0 317.399 11.22 Q 315.457 13.159 313.48 15.56 Q 309.76 20.08 306.4 25.48 Q 303.04 30.88 300.2 36.92 Q 297.36 42.96 295.44 48.8 A 76.551 76.551 0 0 1 298.734 43.613 A 64.924 64.924 0 0 1 300.8 40.8 Q 303.6 37.2 306.4 34.64 A 31.922 31.922 0 0 1 308.827 32.622 Q 310.18 31.612 311.503 30.883 A 19.229 19.229 0 0 1 311.88 30.68 A 14.744 14.744 0 0 1 314.092 29.734 Q 315.573 29.246 316.96 29.2 Q 320.48 31.76 320.48 36 A 13.447 13.447 0 0 1 319.794 40.186 A 15.832 15.832 0 0 1 319.44 41.16 Q 318.4 43.76 316.68 45.96 Q 314.96 48.16 312.76 49.72 Q 310.56 51.28 308.16 51.76 A 46.269 46.269 0 0 0 309.824 56.542 A 51.828 51.828 0 0 0 310.2 57.44 Q 311.44 60.32 313.16 63.04 Q 314.88 65.76 317.08 68.08 Q 319.28 70.4 322.08 72 Q 321.705 72.75 320.979 73.5 A 8.842 8.842 0 0 1 320.88 73.6 Q 320.08 74.4 318.96 75 A 11.438 11.438 0 0 1 316.888 75.854 A 12.918 12.918 0 0 1 316.52 75.96 A 10.003 10.003 0 0 1 314.321 76.311 A 9.177 9.177 0 0 1 313.92 76.32 A 4.483 4.483 0 0 1 311.485 75.578 Q 310.839 75.169 310.223 74.534 A 9.401 9.401 0 0 1 309.88 74.16 Q 308 72 306.48 67.92 Q 305.562 65.409 304.69 62.147 A 104.893 104.893 0 0 1 304.16 60.08 Q 303.04 55.52 302.16 50.56 A 17.446 17.446 0 0 0 302.915 50.044 Q 303.746 49.445 304.808 48.566 A 56.809 56.809 0 0 0 304.96 48.44 Q 306.64 47.04 308.48 45.2 A 41.963 41.963 0 0 0 311.519 41.965 Q 314.411 38.506 315.213 35.594 A 8.105 8.105 0 0 0 315.52 33.44 A 0.65 0.65 0 0 0 315.454 33.138 Q 315.315 32.868 314.879 32.814 A 1.935 1.935 0 0 0 314.64 32.8 A 4.908 4.908 0 0 0 313.39 33.042 Q 312.247 33.409 310.88 34.32 A 21.329 21.329 0 0 0 309.008 35.734 Q 307.691 36.84 306.28 38.32 Q 303.84 40.88 301.32 44.32 A 81.415 81.415 0 0 0 297.357 50.28 A 92.031 92.031 0 0 0 296.48 51.76 A 21.014 21.014 0 0 0 295.464 53.683 A 27.449 27.449 0 0 0 294.72 55.44 Q 293.92 57.52 293.32 59.72 Q 292.72 61.92 292.4 64.08 A 30.804 30.804 0 0 0 292.146 66.347 A 23.811 23.811 0 0 0 292.08 68.08 A 8.659 8.659 0 0 0 292.109 68.803 Q 292.139 69.165 292.202 69.474 A 3.869 3.869 0 0 0 292.32 69.92 A 9.858 9.858 0 0 1 291.327 69.777 Q 290.319 69.574 289.771 69.179 A 1.61 1.61 0 0 1 289.28 68.64 Q 288.708 67.781 288.295 67.211 A 23.373 23.373 0 0 0 288.2 67.08 Q 287.76 66.48 287.28 66.08 Q 286.56 65.52 286.08 63.68 Q 285.732 62.343 285.636 60.499 A 28.298 28.298 0 0 1 285.6 59.04 A 15.767 15.767 0 0 1 285.738 57.077 Z M 447.92 54.16 Q 446.08 60 444.24 64.8 A 94.993 94.993 0 0 1 441.847 70.503 A 78.911 78.911 0 0 1 440.32 73.64 Q 438.24 77.68 435.84 81.08 Q 433.44 84.48 430.56 87.52 Q 426.88 91.36 422.96 93.4 A 18.47 18.47 0 0 1 418.673 95.021 A 15.432 15.432 0 0 1 415.12 95.44 Q 413.12 95.44 411.16 95 A 20.069 20.069 0 0 1 407.914 93.985 A 18.316 18.316 0 0 1 407.48 93.8 A 16.307 16.307 0 0 1 405.498 92.763 A 13.497 13.497 0 0 1 404.44 92.04 A 8.202 8.202 0 0 1 403.525 91.24 Q 403.067 90.772 402.761 90.279 A 4.488 4.488 0 0 1 402.56 89.92 A 1.634 1.634 0 0 1 402.945 88.877 Q 403.138 88.636 403.428 88.416 A 3.936 3.936 0 0 1 403.68 88.24 A 35.716 35.716 0 0 0 404.249 88.751 Q 404.84 89.27 405.28 89.6 A 10.742 10.742 0 0 0 405.988 90.089 A 8.412 8.412 0 0 0 406.52 90.4 Q 407.12 90.72 407.8 90.8 A 10.884 10.884 0 0 0 408.434 90.855 Q 408.757 90.874 409.117 90.878 A 18.447 18.447 0 0 0 409.36 90.88 A 16.148 16.148 0 0 0 416.346 89.252 A 20.331 20.331 0 0 0 418.28 88.2 A 27.914 27.914 0 0 0 422.905 84.599 A 38.103 38.103 0 0 0 426.52 80.6 Q 430.34 75.757 433.5 68.898 A 79.512 79.512 0 0 0 433.6 68.68 A 86.992 86.992 0 0 0 437.144 59.54 A 108.784 108.784 0 0 0 439.04 53.04 A 923.312 923.312 0 0 1 438.193 54.341 Q 437.43 55.51 436.48 56.96 A 57.485 57.485 0 0 1 433.178 61.489 A 62.493 62.493 0 0 1 433.12 61.56 Q 431.28 63.84 429.32 65.68 A 15.059 15.059 0 0 1 427.867 66.891 Q 426.67 67.76 425.52 68.16 Q 424.24 68.08 422.84 67.64 Q 421.44 67.2 420.2 66.4 Q 418.96 65.6 418 64.48 Q 417.04 63.36 416.72 61.92 Q 416.72 59.706 416.866 58.33 A 15.737 15.737 0 0 1 416.88 58.2 Q 417.04 56.8 417.44 55.12 Q 418.16 52.08 419.56 48.24 Q 420.96 44.4 422.84 40.68 Q 424.72 36.96 427 33.72 A 27.305 27.305 0 0 1 429.034 31.153 Q 430.365 29.675 431.76 28.64 A 8.836 8.836 0 0 1 432.262 28.655 Q 432.503 28.669 432.778 28.695 A 19.889 19.889 0 0 1 433.36 28.76 A 11.145 11.145 0 0 1 434.714 29.019 A 13.327 13.327 0 0 1 435.36 29.2 Q 436.4 29.52 437.36 29.96 Q 438.32 30.4 439.04 31.12 A 4.979 4.979 0 0 0 438.597 31.6 Q 437.559 32.846 435.2 36.48 Q 432.24 41.04 428.64 49.6 Q 428.334 50.274 427.934 51.416 A 52.508 52.508 0 0 0 427.68 52.16 Q 427.12 53.84 426.6 55.68 Q 426.08 57.52 425.68 59.28 A 22.902 22.902 0 0 0 425.471 60.298 Q 425.3 61.249 425.282 61.924 A 5.83 5.83 0 0 0 425.28 62.08 A 3.3 3.3 0 0 0 425.296 62.415 Q 425.332 62.767 425.45 62.988 A 0.885 0.885 0 0 0 425.48 63.04 A 4.574 4.574 0 0 0 425.601 63.224 Q 425.722 63.398 425.826 63.505 A 1.258 1.258 0 0 0 425.84 63.52 Q 427.28 63.28 429.68 61.16 A 20.353 20.353 0 0 0 431.243 59.605 Q 432.779 57.916 434.538 55.404 A 69.217 69.217 0 0 0 435.12 54.56 A 90.172 90.172 0 0 0 438.439 49.195 A 82.445 82.445 0 0 0 438.64 48.84 Q 440.24 46 441.8 43.12 Q 443.36 40.24 445.04 37.2 Q 446.72 34.16 448.64 30.96 A 10.298 10.298 0 0 1 449.861 31.036 A 13.166 13.166 0 0 1 450.88 31.2 Q 452.08 31.44 453.2 31.8 A 14.693 14.693 0 0 1 454.22 32.168 Q 454.711 32.367 455.133 32.586 A 9.024 9.024 0 0 1 455.16 32.6 Q 456 33.04 456.4 33.52 Q 453.92 38.8 451.76 43.84 Q 449.6 48.88 447.92 54.16 Z M 95.533 62.76 Q 95.626 61.451 95.812 59.976 A 66.817 66.817 0 0 1 96 58.6 A 77.006 77.006 0 0 1 96.849 53.904 A 96.061 96.061 0 0 1 97.64 50.48 A 152.221 152.221 0 0 1 99.314 44.351 A 178.063 178.063 0 0 1 100.2 41.44 Q 101.68 36.72 103.52 32 A 97.353 97.353 0 0 1 106.977 23.98 A 106.687 106.687 0 0 1 107.24 23.44 Q 109.36 19.12 111.84 14.96 Q 114.32 10.8 117 7.04 A 94.357 94.357 0 0 1 120.704 2.172 A 80.053 80.053 0 0 1 122.4 0.16 A 11.735 11.735 0 0 1 123.904 0.261 A 15.13 15.13 0 0 1 125.16 0.48 Q 126.64 0.8 128.04 1.32 A 14.739 14.739 0 0 1 129.996 2.207 A 12.939 12.939 0 0 1 130.6 2.56 A 13.553 13.553 0 0 1 131.47 3.145 Q 131.889 3.452 132.228 3.76 A 7.195 7.195 0 0 1 132.48 4 Q 126.48 10.16 121.68 16.44 A 95.043 95.043 0 0 0 117.863 21.79 Q 116.069 24.508 114.693 27.067 A 55.408 55.408 0 0 0 114.08 28.24 Q 112.56 31.28 111.32 33.92 Q 110.08 36.56 109.04 39.16 Q 108 41.76 107.16 44.36 Q 106.32 46.96 105.6 49.84 A 166.703 166.703 0 0 1 111.082 43.179 Q 119.834 33.134 125.434 30.887 A 8.029 8.029 0 0 1 128.4 30.24 A 7.382 7.382 0 0 1 130.49 30.559 Q 131.355 30.814 132.267 31.272 A 13.889 13.889 0 0 1 132.88 31.6 A 14.386 14.386 0 0 1 136.741 34.819 A 16.597 16.597 0 0 1 137.12 35.28 Q 134.805 37.819 132.35 41.335 A 84.547 84.547 0 0 0 132 41.84 Q 129.36 45.68 127.16 49.56 A 81.564 81.564 0 0 0 125.174 53.272 A 59.229 59.229 0 0 0 123.56 56.76 Q 122.16 60.08 122.16 61.68 A 4.175 4.175 0 0 0 122.174 62.037 Q 122.204 62.382 122.296 62.59 A 0.686 0.686 0 0 0 122.4 62.76 Q 122.64 63.04 123.44 63.04 A 7.362 7.362 0 0 0 124.176 63.006 Q 124.543 62.969 124.85 62.892 A 3.1 3.1 0 0 0 125.36 62.72 Q 126.064 62.407 126.233 62.4 A 0.179 0.179 0 0 1 126.24 62.4 A 15.23 15.23 0 0 1 126.4 62.661 Q 126.612 63.017 126.692 63.207 A 1.044 1.044 0 0 1 126.72 63.28 A 2.086 2.086 0 0 1 126.762 63.422 Q 126.781 63.495 126.791 63.559 A 0.83 0.83 0 0 1 126.8 63.68 Q 126.8 64 125.84 64.6 Q 124.88 65.2 123.56 65.8 A 41.743 41.743 0 0 1 121.12 66.82 A 38.226 38.226 0 0 1 120.96 66.88 Q 119.966 67.253 119.358 67.336 A 2.36 2.36 0 0 1 119.04 67.36 A 3.108 3.108 0 0 1 117.89 67.133 A 3.94 3.94 0 0 1 117.44 66.92 Q 116.64 66.48 116.04 65.76 Q 115.44 65.04 115.08 64.16 Q 114.72 63.28 114.72 62.32 A 6.236 6.236 0 0 1 114.774 61.553 Q 114.912 60.456 115.4 58.76 Q 115.921 56.953 116.746 54.677 A 102.425 102.425 0 0 1 117.28 53.24 Q 118.48 50.08 120.16 46.32 A 239.431 239.431 0 0 1 123.521 39.129 A 261.111 261.111 0 0 1 123.76 38.64 A 0.461 0.461 0 0 0 123.744 38.513 Q 123.704 38.371 123.559 38.334 A 0.471 0.471 0 0 0 123.44 38.32 A 0.436 0.436 0 0 0 123.311 38.346 Q 123.008 38.446 122.254 38.926 A 21.142 21.142 0 0 0 122.2 38.96 Q 121.2 39.6 120.32 40.24 A 38.715 38.715 0 0 0 117.113 42.944 A 50.632 50.632 0 0 0 114.52 45.56 Q 111.6 48.72 108.84 52.48 Q 106.08 56.24 103.64 60.44 A 71.352 71.352 0 0 0 99.663 68.35 A 65.811 65.811 0 0 0 99.44 68.88 Q 99.2 69.44 98.72 69.92 Q 98.367 70.274 98.1 70.367 A 0.546 0.546 0 0 1 97.92 70.4 A 0.317 0.317 0 0 1 97.779 70.361 Q 97.564 70.252 97.24 69.84 A 5.11 5.11 0 0 1 96.845 69.253 Q 96.632 68.886 96.44 68.44 Q 96.08 67.6 95.76 66.72 A 6.643 6.643 0 0 1 95.578 66.143 Q 95.44 65.62 95.44 65.2 A 34.59 34.59 0 0 1 95.533 62.76 Z M 1.48 70.4 A 4.106 4.106 0 0 1 0.593 69.502 A 3.216 3.216 0 0 1 0 67.6 Q 0 66.487 0.545 64.588 A 28.177 28.177 0 0 1 0.72 64 Q 1.44 61.68 2.84 58.52 A 120.383 120.383 0 0 1 4.354 55.245 Q 5.205 53.47 6.2 51.52 Q 8.16 47.68 10.64 43.28 A 322.293 322.293 0 0 0 8.787 43.214 Q 7.916 43.185 7.14 43.165 A 188.896 188.896 0 0 0 6.92 43.16 Q 5.453 43.124 4.466 43.12 A 59.121 59.121 0 0 0 4.24 43.12 Q 4.666 42.057 6.472 41.245 A 11.028 11.028 0 0 1 6.96 41.04 Q 9.2 40.16 12.88 39.52 Q 16 34.32 19.56 29.6 A 128.318 128.318 0 0 1 24.698 23.208 A 110.484 110.484 0 0 1 26.72 20.92 A 78.302 78.302 0 0 1 31.219 16.346 A 64.139 64.139 0 0 1 33.92 13.96 Q 37.281 11.159 40.363 9.439 A 30.13 30.13 0 0 1 40.8 9.2 Q 40.88 8.64 40.92 8.24 A 16.045 16.045 0 0 0 40.938 8.056 Q 40.958 7.827 40.96 7.707 A 1.521 1.521 0 0 0 40.96 7.68 A 6.098 6.098 0 0 1 41.734 7.735 Q 42.537 7.838 43.604 8.137 A 22.525 22.525 0 0 1 43.96 8.24 Q 45.84 8.8 47.64 9.6 Q 49.44 10.4 50.84 11.24 A 10.412 10.412 0 0 1 51.391 11.593 Q 52.275 12.202 52.4 12.64 A 33.834 33.834 0 0 0 50.768 15.965 Q 49.219 19.561 47.697 24.772 A 131.636 131.636 0 0 0 47.2 26.52 A 124.612 124.612 0 0 0 45.197 34.964 Q 43.932 41.194 42.96 48.64 Q 42.587 51.628 42.318 55.382 A 181.944 181.944 0 0 0 42.28 55.92 Q 42 60 42 65.04 L 42 68.64 Q 42 70.48 42.16 72.48 A 0.771 0.771 0 0 1 41.98 72.545 A 0.653 0.653 0 0 1 41.84 72.56 L 41.2 72.56 A 8.534 8.534 0 0 1 40.191 72.496 Q 39.686 72.436 39.123 72.318 A 16.211 16.211 0 0 1 38.6 72.2 Q 37.12 71.84 35.72 71.32 Q 34.413 70.835 33.455 70.244 A 9.107 9.107 0 0 1 33.32 70.16 Q 32.32 69.52 32.08 69.04 Q 32 68 32 67 L 32 64.88 Q 32 59.92 32.36 54.8 A 116.334 116.334 0 0 1 33.376 45.679 A 129.518 129.518 0 0 1 33.6 44.24 Q 32.48 44.16 30.64 44.04 Q 28.8 43.92 26.52 43.84 Q 24.24 43.76 21.64 43.64 Q 19.04 43.52 16.56 43.44 Q 14.64 47.04 12.96 50.6 Q 11.28 54.16 10.08 57.76 Q 8.72 61.6 7.88 65.44 A 56.163 56.163 0 0 0 7.125 69.608 A 44.529 44.529 0 0 0 6.8 72.64 Q 3.817 71.77 2.258 70.9 A 6.719 6.719 0 0 1 1.48 70.4 Z M 37.68 24.56 Q 38 23.44 38.44 21.48 Q 38.88 19.52 39.28 17.36 A 11.589 11.589 0 0 0 37.651 18.106 Q 36.327 18.83 34.84 20 Q 32.4 21.92 29.8 24.76 A 79.334 79.334 0 0 0 26.685 28.386 A 98.705 98.705 0 0 0 24.52 31.16 A 101.271 101.271 0 0 0 19.438 38.595 A 110.021 110.021 0 0 0 19.36 38.72 Q 25.634 38.197 33.512 38.023 A 330.377 330.377 0 0 1 34.64 38 Q 35.28 34.64 36.04 31.32 Q 36.8 28 37.68 24.56 Z M 355.016 34.286 Q 355.356 34.328 355.733 34.409 A 11.181 11.181 0 0 1 356.2 34.52 Q 357.28 34.8 358.16 35.24 Q 358.947 35.634 359.511 36.059 A 5.961 5.961 0 0 1 359.64 36.16 A 2.962 2.962 0 0 1 359.889 36.381 Q 360.24 36.734 360.24 37.04 Q 358.64 40.4 357.28 43.8 A 90.228 90.228 0 0 0 355.737 47.941 A 75.898 75.898 0 0 0 354.96 50.32 A 61.506 61.506 0 0 0 354.019 53.703 A 48.024 48.024 0 0 0 353.48 56.16 Q 353.082 58.243 352.989 59.903 A 17.433 17.433 0 0 0 352.96 60.88 Q 352.96 63.12 353.44 64.6 A 4.548 4.548 0 0 0 353.89 65.592 A 3.221 3.221 0 0 0 355.04 66.72 A 6.348 6.348 0 0 1 354.095 67.233 Q 353.629 67.44 353.078 67.612 A 12.16 12.16 0 0 1 352.56 67.76 Q 351.04 68.16 349.84 68.16 A 4.397 4.397 0 0 1 347.801 67.717 Q 345.978 66.777 345.612 63.841 A 12.986 12.986 0 0 1 345.52 62.24 Q 345.52 57.68 348.56 49.76 Q 346.96 53.44 344.88 56.68 A 54.381 54.381 0 0 1 342.515 60.085 A 42.905 42.905 0 0 1 340.64 62.4 Q 338.48 64.88 336.28 66.44 Q 334.08 68 332.24 68.32 Q 329.28 68.16 327.44 65.48 A 10.007 10.007 0 0 1 325.978 62.106 Q 325.65 60.735 325.607 59.135 A 18.218 18.218 0 0 1 325.6 58.64 Q 325.6 54.16 327.52 49.2 Q 329.44 44.24 332.44 40 A 38.215 38.215 0 0 1 336.083 35.565 A 31.07 31.07 0 0 1 338.96 32.92 Q 341.577 30.809 344.06 30.179 A 8.603 8.603 0 0 1 345.76 29.92 Q 346.56 30.16 347.56 30.88 A 13.722 13.722 0 0 1 349.191 32.266 A 15.477 15.477 0 0 1 349.48 32.56 Q 350.4 33.52 351.04 34.52 A 7.089 7.089 0 0 1 351.382 35.111 Q 351.694 35.721 351.756 36.207 A 2.03 2.03 0 0 1 351.76 36.24 A 11.58 11.58 0 0 0 348.613 37.212 Q 347.338 37.802 346.034 38.715 A 21.9 21.9 0 0 0 345.16 39.36 A 32.036 32.036 0 0 0 339.703 44.803 A 36.361 36.361 0 0 0 339 45.72 Q 336.24 49.44 334.48 53.68 Q 332.79 57.752 332.723 61.308 A 15.53 15.53 0 0 0 332.72 61.6 Q 332.72 62.488 333.102 62.993 A 1.553 1.553 0 0 0 333.84 63.52 A 5.398 5.398 0 0 0 335.361 62.927 Q 336.721 62.169 338.286 60.555 A 25.976 25.976 0 0 0 339.2 59.56 A 38.968 38.968 0 0 0 341.118 57.159 Q 343.523 53.919 346.56 48.8 Q 347.36 47.36 348.36 45.6 Q 349.36 43.84 350.4 41.92 Q 351.44 40 352.44 38.04 Q 353.44 36.08 354.32 34.24 A 5.653 5.653 0 0 1 355.016 34.286 Z M 485.256 34.286 Q 485.596 34.328 485.973 34.409 A 11.181 11.181 0 0 1 486.44 34.52 Q 487.52 34.8 488.4 35.24 Q 489.187 35.634 489.751 36.059 A 5.961 5.961 0 0 1 489.88 36.16 A 2.962 2.962 0 0 1 490.129 36.381 Q 490.48 36.734 490.48 37.04 Q 488.88 40.4 487.52 43.8 A 90.228 90.228 0 0 0 485.977 47.941 A 75.898 75.898 0 0 0 485.2 50.32 A 61.506 61.506 0 0 0 484.259 53.703 A 48.024 48.024 0 0 0 483.72 56.16 Q 483.322 58.243 483.229 59.903 A 17.433 17.433 0 0 0 483.2 60.88 Q 483.2 63.12 483.68 64.6 A 4.548 4.548 0 0 0 484.13 65.592 A 3.221 3.221 0 0 0 485.28 66.72 A 6.348 6.348 0 0 1 484.335 67.233 Q 483.869 67.44 483.318 67.612 A 12.16 12.16 0 0 1 482.8 67.76 Q 481.28 68.16 480.08 68.16 A 4.397 4.397 0 0 1 478.041 67.717 Q 476.218 66.777 475.852 63.841 A 12.986 12.986 0 0 1 475.76 62.24 Q 475.76 57.68 478.8 49.76 Q 477.2 53.44 475.12 56.68 A 54.381 54.381 0 0 1 472.755 60.085 A 42.905 42.905 0 0 1 470.88 62.4 Q 468.72 64.88 466.52 66.44 Q 464.32 68 462.48 68.32 Q 459.52 68.16 457.68 65.48 A 10.007 10.007 0 0 1 456.218 62.106 Q 455.89 60.735 455.847 59.135 A 18.218 18.218 0 0 1 455.84 58.64 Q 455.84 54.16 457.76 49.2 Q 459.68 44.24 462.68 40 A 38.215 38.215 0 0 1 466.323 35.565 A 31.07 31.07 0 0 1 469.2 32.92 Q 471.817 30.809 474.3 30.179 A 8.603 8.603 0 0 1 476 29.92 Q 476.8 30.16 477.8 30.88 A 13.722 13.722 0 0 1 479.431 32.266 A 15.477 15.477 0 0 1 479.72 32.56 Q 480.64 33.52 481.28 34.52 A 7.089 7.089 0 0 1 481.622 35.111 Q 481.934 35.721 481.996 36.207 A 2.03 2.03 0 0 1 482 36.24 A 11.58 11.58 0 0 0 478.853 37.212 Q 477.578 37.802 476.274 38.715 A 21.9 21.9 0 0 0 475.4 39.36 A 32.036 32.036 0 0 0 469.943 44.803 A 36.361 36.361 0 0 0 469.24 45.72 Q 466.48 49.44 464.72 53.68 Q 463.03 57.752 462.963 61.308 A 15.53 15.53 0 0 0 462.96 61.6 Q 462.96 62.488 463.342 62.993 A 1.553 1.553 0 0 0 464.08 63.52 A 5.398 5.398 0 0 0 465.601 62.927 Q 466.961 62.169 468.526 60.555 A 25.976 25.976 0 0 0 469.44 59.56 A 38.968 38.968 0 0 0 471.358 57.159 Q 473.763 53.919 476.8 48.8 Q 477.6 47.36 478.6 45.6 Q 479.6 43.84 480.64 41.92 Q 481.68 40 482.68 38.04 Q 483.68 36.08 484.56 34.24 A 5.653 5.653 0 0 1 485.256 34.286 Z M 267.68 64.8 Q 266.16 63.52 265.64 61.6 Q 265.266 60.218 265.161 59.126 A 8.448 8.448 0 0 1 265.12 58.32 A 11.84 11.84 0 0 1 265.186 57.034 Q 265.283 56.153 265.52 55.44 A 0.376 0.376 0 0 0 265.35 55.497 Q 264.992 55.694 264.207 56.576 A 22.245 22.245 0 0 0 264.08 56.72 A 42.012 42.012 0 0 0 263.062 57.932 Q 262.553 58.56 262.008 59.274 A 72.026 72.026 0 0 0 261.64 59.76 Q 260.32 61.52 259.04 63.2 Q 257.76 64.88 257.12 65.68 A 16.401 16.401 0 0 1 256.295 66.511 Q 255.707 67.06 255.16 67.44 A 7.879 7.879 0 0 1 254.697 67.74 Q 254.233 68.017 253.884 68.116 A 1.553 1.553 0 0 1 253.68 68.16 Q 252.4 68.08 251 67.64 Q 249.6 67.2 248.36 66.4 Q 247.12 65.6 246.2 64.48 Q 245.28 63.36 244.96 61.92 Q 244.96 59.916 245.056 58.553 A 24.438 24.438 0 0 1 245.08 58.24 A 18.738 18.738 0 0 1 245.3 56.569 A 24.486 24.486 0 0 1 245.6 55.12 Q 246.32 52.08 247.72 48.24 Q 249.12 44.4 250.96 40.68 Q 252.8 36.96 255.08 33.72 A 25.808 25.808 0 0 1 257.129 31.153 Q 258.48 29.675 259.92 28.64 Q 260.472 28.64 261.163 28.71 A 19.093 19.093 0 0 1 261.6 28.76 A 10.594 10.594 0 0 1 263.187 29.087 A 12.046 12.046 0 0 1 263.56 29.2 Q 264.56 29.52 265.48 29.96 Q 266.4 30.4 267.04 31.12 A 6.701 6.701 0 0 0 266.693 31.552 Q 265.773 32.775 263.4 36.48 A 50.338 50.338 0 0 0 261.509 39.721 Q 259.658 43.153 257.57 47.982 A 175.378 175.378 0 0 0 256.88 49.6 Q 256.574 50.274 256.174 51.416 A 52.508 52.508 0 0 0 255.92 52.16 Q 255.36 53.84 254.8 55.68 Q 254.24 57.52 253.88 59.28 Q 253.546 60.912 253.522 61.925 A 6.473 6.473 0 0 0 253.52 62.08 A 3.3 3.3 0 0 0 253.536 62.415 Q 253.572 62.767 253.69 62.988 A 0.885 0.885 0 0 0 253.72 63.04 A 4.574 4.574 0 0 0 253.841 63.224 Q 253.962 63.398 254.066 63.505 A 1.258 1.258 0 0 0 254.08 63.52 Q 255.28 63.04 257.12 60.88 Q 258.529 59.226 260.782 56.213 A 247.241 247.241 0 0 0 262.24 54.24 A 109.95 109.95 0 0 1 262.994 53.199 Q 263.513 52.49 264.12 51.68 A 82.259 82.259 0 0 0 265.728 49.457 A 95.217 95.217 0 0 0 266.32 48.6 Q 267.44 46.96 268.44 45.2 A 23.649 23.649 0 0 0 269.827 42.341 A 21.129 21.129 0 0 0 270.08 41.68 Q 270.4 40.72 270.92 39.4 A 25.594 25.594 0 0 1 271.664 37.703 A 31.457 31.457 0 0 1 272.2 36.64 Q 272.96 35.2 273.96 33.72 Q 274.96 32.24 276.32 30.96 A 10.298 10.298 0 0 1 277.541 31.036 A 13.166 13.166 0 0 1 278.56 31.2 A 19.294 19.294 0 0 1 280.5 31.69 A 17.348 17.348 0 0 1 280.84 31.8 Q 281.884 32.148 282.667 32.571 A 8.215 8.215 0 0 1 282.72 32.6 A 6.049 6.049 0 0 1 283.223 32.907 Q 283.468 33.075 283.658 33.248 A 2.752 2.752 0 0 1 283.92 33.52 Q 282.48 37.04 280.72 40.48 A 173.051 173.051 0 0 0 277.535 47.032 A 158.884 158.884 0 0 0 277.44 47.24 Q 275.92 50.56 274.88 53.84 A 22.157 22.157 0 0 0 273.947 58.225 A 19.278 19.278 0 0 0 273.84 60.24 A 17.028 17.028 0 0 0 273.89 61.579 Q 273.941 62.227 274.045 62.792 A 9.299 9.299 0 0 0 274.12 63.16 A 21.367 21.367 0 0 0 274.336 64.034 Q 274.451 64.46 274.572 64.824 A 10.317 10.317 0 0 0 274.72 65.24 Q 274.964 65.879 275.184 66.356 A 10.183 10.183 0 0 0 275.32 66.64 Q 275.6 67.2 275.6 67.6 A 0.126 0.126 0 0 1 275.589 67.647 Q 275.558 67.722 275.44 67.84 A 0.361 0.361 0 0 1 275.392 67.881 Q 275.336 67.92 275.28 67.92 A 3.469 3.469 0 0 1 274.863 67.892 Q 274.421 67.838 273.84 67.68 A 14.262 14.262 0 0 1 272.971 67.411 Q 272.583 67.278 272.164 67.113 A 23.694 23.694 0 0 1 271.88 67 Q 270.8 66.56 269.72 66 Q 268.64 65.44 267.68 64.8 Z M 383.139 29.358 Q 384.205 29.59 385.44 30.16 Q 387.52 31.12 389.12 32.64 A 76.856 76.856 0 0 0 388.476 28.41 A 65.594 65.594 0 0 0 388.12 26.6 A 37.285 37.285 0 0 0 387.031 22.6 A 44.33 44.33 0 0 0 386.36 20.72 A 49.353 49.353 0 0 0 385.058 17.644 Q 384.369 16.15 383.525 14.542 A 80.15 80.15 0 0 0 383.28 14.08 A 111.74 111.74 0 0 0 381.705 11.234 Q 380.993 9.987 380.187 8.638 A 197.586 197.586 0 0 0 378.48 5.84 A 3.089 3.089 0 0 1 378.709 5.329 Q 379.002 4.798 379.56 4.16 A 13.602 13.602 0 0 1 381.214 2.572 A 15.226 15.226 0 0 1 381.48 2.36 Q 382.56 1.52 383.72 0.88 Q 384.88 0.24 385.92 0.08 A 26.256 26.256 0 0 1 388.067 2.822 Q 389.01 4.195 389.905 5.813 A 43.697 43.697 0 0 1 390.16 6.28 Q 392.16 10 393.68 14.28 Q 395.2 18.56 396.04 23.12 A 50.758 50.758 0 0 1 396.794 29.134 A 43.21 43.21 0 0 1 396.88 31.84 A 41.009 41.009 0 0 1 396.225 39.031 A 46.443 46.443 0 0 1 395.96 40.4 Q 395.04 44.8 393.4 49 Q 391.76 53.2 389.6 56.96 A 47.034 47.034 0 0 1 386.498 61.702 A 39.995 39.995 0 0 1 384.92 63.68 A 30.722 30.722 0 0 1 382.104 66.595 A 24.075 24.075 0 0 1 379.68 68.52 A 16.152 16.152 0 0 1 377.13 69.975 A 12.204 12.204 0 0 1 374.24 70.88 A 19.492 19.492 0 0 1 370.752 70.171 Q 368.808 69.572 367.322 68.57 A 10.245 10.245 0 0 1 365.8 67.32 A 9.65 9.65 0 0 1 363.233 62.574 A 14.501 14.501 0 0 1 362.88 59.28 A 20.412 20.412 0 0 1 363.117 56.255 A 27.463 27.463 0 0 1 363.72 53.36 Q 364.56 50.16 365.96 47 Q 367.36 43.84 369.24 40.84 A 43.089 43.089 0 0 1 371.939 36.999 A 37.12 37.12 0 0 1 373.24 35.44 A 35.368 35.368 0 0 1 375.638 32.968 A 27.922 27.922 0 0 1 377.52 31.36 Q 379.44 29.867 381.296 29.322 A 8.146 8.146 0 0 1 381.76 29.2 A 6.506 6.506 0 0 1 383.139 29.358 Z M 377.935 64.804 A 21.478 21.478 0 0 0 379.2 63.44 A 35.638 35.638 0 0 0 382.482 58.887 A 44.328 44.328 0 0 0 384.24 55.72 A 51.09 51.09 0 0 0 387.702 46.832 A 56.283 56.283 0 0 0 387.88 46.2 A 39.04 39.04 0 0 0 389.115 39.688 A 33.239 33.239 0 0 0 389.28 36.4 L 389.28 34.72 Q 389.28 34.4 389.2 34.08 Q 387.636 34.732 385.912 36.127 A 22.541 22.541 0 0 0 385.12 36.8 Q 382.96 38.72 380.8 41.24 A 50.716 50.716 0 0 0 377.204 45.987 A 55.776 55.776 0 0 0 376.72 46.72 A 68.175 68.175 0 0 0 373.472 52.27 A 62.559 62.559 0 0 0 373.28 52.64 A 42.357 42.357 0 0 0 371.773 55.894 A 33.713 33.713 0 0 0 370.88 58.32 A 21.259 21.259 0 0 0 370.327 60.347 Q 370.107 61.359 370.035 62.263 A 10.797 10.797 0 0 0 370 63.12 A 6.578 6.578 0 0 0 370.205 64.831 Q 370.858 67.253 373.6 67.68 Q 375.767 66.937 377.935 64.804 Z M 212.64 41.2 Q 217.6 33.84 222.44 27.64 A 149.845 149.845 0 0 1 226.881 22.205 Q 229.035 19.698 231.094 17.563 A 90.655 90.655 0 0 1 231.68 16.96 A 74.371 74.371 0 0 1 234.879 13.881 Q 237.46 11.55 239.76 10 A 20.723 20.723 0 0 1 241.861 8.746 Q 244.143 7.574 245.991 7.522 A 6.067 6.067 0 0 1 246.16 7.52 Q 246.984 7.52 247.933 8.022 A 6.8 6.8 0 0 1 248.44 8.32 A 9.88 9.88 0 0 1 250.052 9.629 A 12.069 12.069 0 0 1 250.76 10.4 Q 251.84 11.68 252.56 13.16 A 7.683 7.683 0 0 1 253.071 14.499 A 5.697 5.697 0 0 1 253.28 16 Q 248.32 17.6 243.56 20.2 Q 238.8 22.8 234.44 26.2 Q 230.08 29.6 226.12 33.76 Q 222.16 37.92 218.96 42.64 A 72.042 72.042 0 0 0 220.59 46.469 A 92.72 92.72 0 0 0 222.12 49.64 Q 224 53.36 226.24 56.84 A 57.064 57.064 0 0 0 230.881 63.094 A 52.748 52.748 0 0 0 231.04 63.28 A 31.078 31.078 0 0 0 233.458 65.791 Q 234.838 67.065 236.24 68 Q 235.84 68.88 234.88 69.68 Q 233.92 70.48 232.8 71.16 Q 231.68 71.84 230.44 72.24 A 9.038 9.038 0 0 1 229.358 72.52 Q 228.729 72.64 228.16 72.64 Q 226.127 72.64 224.4 70.768 A 8.827 8.827 0 0 1 224.32 70.68 A 14.115 14.115 0 0 1 223.133 69.137 Q 221.956 67.39 220.76 64.76 Q 218.96 60.8 217 54.92 A 465.293 465.293 0 0 1 215.201 49.4 Q 214.293 46.557 213.307 43.366 A 834.259 834.259 0 0 1 212.64 41.2 Z M 155.68 61.44 Q 155.68 57.92 157.36 51.56 A 136.386 136.386 0 0 1 158.812 46.492 Q 159.667 43.697 160.73 40.579 A 260.664 260.664 0 0 1 162.08 36.72 Q 167.04 23.2 171.4 14.2 Q 174.419 7.969 177.342 3.636 A 44.97 44.97 0 0 1 179.92 0.16 A 6.158 6.158 0 0 1 180.632 0.327 Q 180.997 0.433 181.409 0.592 A 15.333 15.333 0 0 1 182.28 0.96 Q 183.68 1.6 185.04 2.36 A 24.858 24.858 0 0 1 186.557 3.277 A 19.906 19.906 0 0 1 187.48 3.92 Q 188.281 4.513 188.664 4.931 A 2.267 2.267 0 0 1 188.88 5.2 Q 182.64 12.56 177.92 21.04 Q 173.2 29.52 169.28 40.48 Q 166.275 48.924 164.549 55.864 A 111.281 111.281 0 0 0 164.16 57.48 Q 162.4 65.04 162.4 70.08 L 162.4 71.76 Q 162.4 72.08 162.48 72.4 A 7.686 7.686 0 0 1 161.562 72.214 Q 161.01 72.065 160.56 71.84 Q 160.036 71.578 159.752 71.247 A 1.427 1.427 0 0 1 159.52 70.88 Q 159.366 70.494 158.689 69.772 A 13.363 13.363 0 0 0 158.64 69.72 Q 157.92 68.96 157.36 68.56 A 1.525 1.525 0 0 1 156.974 68.167 Q 156.505 67.506 156.16 66.04 A 17.492 17.492 0 0 1 155.786 63.726 A 23.665 23.665 0 0 1 155.68 61.44 Z M 197.82 72.07 A 10.141 10.141 0 0 1 195.52 70.52 A 18.359 18.359 0 0 1 193.372 68.204 A 23.891 23.891 0 0 1 191.84 66 Q 192.484 64.64 193.352 62.512 A 135.626 135.626 0 0 0 193.56 62 Q 194.56 59.52 196 55.88 A 4217.159 4217.159 0 0 0 197.159 52.947 Q 197.675 51.641 198.245 50.194 A 8068.726 8068.726 0 0 0 199.44 47.16 Q 201.44 42.08 204.08 35.28 Q 205.755 30.973 206.834 28.017 A 223.045 223.045 0 0 0 206.84 28 Q 207.92 25.04 208.68 22.2 Q 209.44 19.36 210.16 15.92 Q 210.844 12.651 211.745 7.721 A 602.937 602.937 0 0 0 211.84 7.2 A 13.224 13.224 0 0 1 217.874 10.088 A 15.494 15.494 0 0 1 217.96 10.16 A 22.468 22.468 0 0 1 222.435 15.303 A 25.404 25.404 0 0 1 222.72 15.76 A 11.418 11.418 0 0 0 222.15 16.562 Q 221.482 17.584 220.68 19.16 Q 219.52 21.44 218.08 24.64 Q 216.64 27.84 214.88 31.76 Q 213.12 35.68 211.2 40.08 Q 206.88 49.68 204.4 57.64 Q 201.92 65.6 200.56 73.04 A 12.812 12.812 0 0 1 197.82 72.07 Z M 136.976 60.636 Q 136.99 60.364 137.016 60.055 A 25.076 25.076 0 0 1 137.08 59.4 A 26.743 26.743 0 0 1 137.175 58.655 Q 137.292 57.817 137.491 56.683 A 91.744 91.744 0 0 1 137.52 56.52 Q 137.84 54.72 138.36 52.16 Q 138.88 49.6 139.68 46 Q 139.801 45.397 140.149 44.248 A 61.022 61.022 0 0 1 140.4 43.44 A 27.685 27.685 0 0 1 141.144 41.397 A 35.141 35.141 0 0 1 141.88 39.72 Q 142.8 37.76 144.12 35.92 A 8.951 8.951 0 0 1 145.77 34.154 A 7.678 7.678 0 0 1 147.28 33.2 A 7.062 7.062 0 0 1 148.165 33.478 Q 149.094 33.831 150.311 34.513 A 29.587 29.587 0 0 1 150.88 34.84 A 11.926 11.926 0 0 1 154.284 37.881 A 14.062 14.062 0 0 1 154.72 38.48 A 30.25 30.25 0 0 0 152.747 40.95 A 24.633 24.633 0 0 0 151.64 42.64 Q 150.4 44.72 149.4 46.96 Q 148.4 49.2 147.56 51.6 A 132.682 132.682 0 0 1 146.311 55.013 A 156.204 156.204 0 0 1 145.68 56.64 Q 144.8 58.88 144.08 61.24 Q 143.529 63.047 143.353 64.502 A 11.493 11.493 0 0 0 143.28 65.36 Q 143.28 66.8 143.24 67.4 A 1.348 1.348 0 0 1 143.21 67.617 Q 143.12 68 142.8 68 Q 142.522 68 141.762 67.698 A 15.198 15.198 0 0 1 141.52 67.6 Q 140.62 67.225 139.685 66.463 A 10.719 10.719 0 0 1 139.56 66.36 A 8.218 8.218 0 0 1 138.361 65.103 A 10.31 10.31 0 0 1 137.76 64.24 Q 136.96 62.96 136.96 61.2 A 11.179 11.179 0 0 1 136.976 60.636 Z M 399.056 60.636 Q 399.07 60.364 399.096 60.055 A 25.076 25.076 0 0 1 399.16 59.4 A 26.743 26.743 0 0 1 399.255 58.655 Q 399.372 57.817 399.571 56.683 A 91.744 91.744 0 0 1 399.6 56.52 Q 399.92 54.72 400.44 52.16 Q 400.96 49.6 401.76 46 Q 401.881 45.397 402.229 44.248 A 61.022 61.022 0 0 1 402.48 43.44 A 27.685 27.685 0 0 1 403.224 41.397 A 35.141 35.141 0 0 1 403.96 39.72 Q 404.88 37.76 406.2 35.92 A 8.951 8.951 0 0 1 407.85 34.154 A 7.678 7.678 0 0 1 409.36 33.2 A 7.062 7.062 0 0 1 410.245 33.478 Q 411.174 33.831 412.391 34.513 A 29.587 29.587 0 0 1 412.96 34.84 A 11.926 11.926 0 0 1 416.364 37.881 A 14.062 14.062 0 0 1 416.8 38.48 A 30.25 30.25 0 0 0 414.827 40.95 A 24.633 24.633 0 0 0 413.72 42.64 Q 412.48 44.72 411.48 46.96 Q 410.48 49.2 409.64 51.6 A 132.682 132.682 0 0 1 408.391 55.013 A 156.204 156.204 0 0 1 407.76 56.64 Q 406.88 58.88 406.16 61.24 Q 405.609 63.047 405.433 64.502 A 11.493 11.493 0 0 0 405.36 65.36 Q 405.36 66.8 405.32 67.4 A 1.348 1.348 0 0 1 405.29 67.617 Q 405.2 68 404.88 68 Q 404.602 68 403.842 67.698 A 15.198 15.198 0 0 1 403.6 67.6 Q 402.7 67.225 401.765 66.463 A 10.719 10.719 0 0 1 401.64 66.36 A 8.218 8.218 0 0 1 400.441 65.103 A 10.31 10.31 0 0 1 399.84 64.24 Q 399.04 62.96 399.04 61.2 A 11.179 11.179 0 0 1 399.056 60.636 Z M 152.48 25.04 A 2.171 2.171 0 0 1 152.186 24.666 Q 152.065 24.476 151.958 24.238 A 4.981 4.981 0 0 1 151.8 23.84 A 5.698 5.698 0 0 1 151.619 23.216 Q 151.545 22.891 151.527 22.597 A 3.1 3.1 0 0 1 151.52 22.4 A 7.144 7.144 0 0 1 151.54 21.899 Q 151.577 21.378 151.683 20.675 A 25.819 25.819 0 0 1 151.72 20.44 Q 151.92 19.2 152.24 17.76 Q 152.56 16.32 153.04 14.76 Q 153.52 13.2 154 11.92 Q 154.96 11.92 156.36 12.44 A 17.369 17.369 0 0 1 158.304 13.306 A 20.538 20.538 0 0 1 159.2 13.8 A 19.546 19.546 0 0 1 161.537 15.393 A 17.823 17.823 0 0 1 161.84 15.64 A 15.194 15.194 0 0 1 162.662 16.373 Q 163.043 16.742 163.342 17.092 A 7.122 7.122 0 0 1 163.68 17.52 Q 163.007 18.194 162.005 19.266 A 155.987 155.987 0 0 0 161.36 19.96 Q 159.92 21.52 158.56 23.24 Q 157.2 24.96 156.08 26.48 A 46.41 46.41 0 0 0 155.599 27.144 Q 154.937 28.077 154.678 28.566 A 3.622 3.622 0 0 0 154.64 28.64 Q 153.68 28.48 152.96 27.8 A 3.327 3.327 0 0 1 152.612 27.421 Q 152.24 26.94 152.24 26.48 Q 152.24 26.108 152.385 25.447 A 13.987 13.987 0 0 1 152.48 25.04 Z M 414.56 25.04 A 2.171 2.171 0 0 1 414.266 24.666 Q 414.145 24.476 414.038 24.238 A 4.981 4.981 0 0 1 413.88 23.84 A 5.698 5.698 0 0 1 413.699 23.216 Q 413.625 22.891 413.607 22.597 A 3.1 3.1 0 0 1 413.6 22.4 A 7.144 7.144 0 0 1 413.62 21.899 Q 413.657 21.378 413.763 20.675 A 25.819 25.819 0 0 1 413.8 20.44 Q 414 19.2 414.32 17.76 Q 414.64 16.32 415.12 14.76 Q 415.6 13.2 416.08 11.92 Q 417.04 11.92 418.44 12.44 A 17.369 17.369 0 0 1 420.384 13.306 A 20.538 20.538 0 0 1 421.28 13.8 A 19.546 19.546 0 0 1 423.617 15.393 A 17.823 17.823 0 0 1 423.92 15.64 A 15.194 15.194 0 0 1 424.742 16.373 Q 425.123 16.742 425.422 17.092 A 7.122 7.122 0 0 1 425.76 17.52 Q 425.087 18.194 424.085 19.266 A 155.987 155.987 0 0 0 423.44 19.96 Q 422 21.52 420.64 23.24 Q 419.28 24.96 418.16 26.48 A 46.41 46.41 0 0 0 417.679 27.144 Q 417.017 28.077 416.758 28.566 A 3.622 3.622 0 0 0 416.72 28.64 Q 415.76 28.48 415.04 27.8 A 3.327 3.327 0 0 1 414.692 27.421 Q 414.32 26.94 414.32 26.48 Q 414.32 26.108 414.465 25.447 A 13.987 13.987 0 0 1 414.56 25.04 Z" vector-effect="non-scaling-stroke"/></g></svg>