<svg width="300" height="70" viewBox="0 0 600.48 100" xmlns="http://www.w3.org/2000/svg"><g id="svgGroup" stroke-linecap="round" fill-rule="evenodd" font-size="9pt" stroke="#fffafa00" stroke-width="0.25mm" fill="#ffffff" style="stroke:#fffafa00;stroke-width:0.25mm;fill:#ffffff"><path d="M 216.4 54.5 L 216.7 54.5 A 2.492 2.492 0 0 1 217.04 54.521 Q 217.418 54.574 217.579 54.756 A 0.5 0.5 0 0 1 217.7 55.1 Q 217.7 55.6 217.2 55.9 A 4.176 4.176 0 0 0 216.709 56.167 Q 215.92 56.657 214.584 57.781 A 50.985 50.985 0 0 0 214.15 58.15 Q 212.383 59.671 210.65 62.136 A 34.477 34.477 0 0 0 209.9 63.25 A 17.073 17.073 0 0 0 207.825 67.927 A 22.166 22.166 0 0 0 207.2 71 A 24.795 24.795 0 0 0 206.942 73.297 A 20.605 20.605 0 0 0 206.9 74.6 Q 206.9 80.6 209.5 84.85 Q 212.1 89.1 216.3 91.8 Q 220.5 94.5 225.5 95.75 A 41.12 41.12 0 0 0 233.493 96.956 A 37.336 37.336 0 0 0 235.3 97 Q 237.2 97 239 96.85 Q 240.8 96.7 242.4 96.3 A 61.314 61.314 0 0 0 253.071 92.932 A 49.101 49.101 0 0 0 261.15 88.6 A 65.12 65.12 0 0 0 273.981 77.469 A 60.879 60.879 0 0 0 274.9 76.4 A 91.761 91.761 0 0 0 283.17 64.924 A 82.254 82.254 0 0 0 284.75 62.2 Q 288.8 54.9 291.6 48.5 Q 292.2 47 293.65 43.8 A 4143.323 4143.323 0 0 0 294.995 40.828 Q 295.681 39.312 296.438 37.636 A 6969.322 6969.322 0 0 0 296.95 36.5 Q 298.8 32.4 300.75 28.2 Q 302.7 24 304.3 20.5 Q 305.619 17.615 306.53 15.818 A 52.58 52.58 0 0 1 306.9 15.1 Q 300.2 15.9 292.45 16.55 Q 284.7 17.2 277.7 19.2 A 40.911 40.911 0 0 0 271.421 21.508 Q 267.734 23.238 264.95 25.6 Q 260 29.8 257.65 34.8 A 26.989 26.989 0 0 0 256.044 39.08 A 19.556 19.556 0 0 0 255.3 44.3 A 15.863 15.863 0 0 0 255.745 48.15 A 11.885 11.885 0 0 0 257.8 52.5 A 8.003 8.003 0 0 0 263.63 55.749 A 10.851 10.851 0 0 0 264.7 55.8 Q 266.9 55.8 269.4 54.9 Q 272.3 53.9 274.2 51.35 A 17.999 17.999 0 0 0 276.928 45.954 A 20.463 20.463 0 0 0 277.05 45.55 A 23.884 23.884 0 0 0 277.864 41.61 A 19.978 19.978 0 0 0 278 39.3 Q 278 37.7 277.7 36.2 L 277.7 36 A 0.576 0.576 0 0 1 277.72 35.842 Q 277.771 35.664 277.952 35.617 A 0.589 0.589 0 0 1 278.1 35.6 A 1.114 1.114 0 0 1 278.806 35.864 Q 279.158 36.144 279.46 36.722 A 4.85 4.85 0 0 1 279.5 36.8 Q 280 37.8 280.15 38.95 Q 280.3 40.1 280.3 41.2 A 15.266 15.266 0 0 1 279.228 46.762 A 17.788 17.788 0 0 1 278.9 47.55 Q 277.5 50.7 275.2 53.2 Q 272.9 55.7 270 56.8 A 17.671 17.671 0 0 1 267.943 57.437 A 14.858 14.858 0 0 1 266.9 57.65 A 18.122 18.122 0 0 1 264.617 57.888 A 16.061 16.061 0 0 1 264 57.9 Q 259.7 57.9 256.35 55.65 Q 253 53.4 251.15 49.7 Q 249.3 46 249.3 41.7 Q 249.3 36.8 252 31.75 A 22.602 22.602 0 0 1 255.731 26.71 Q 257.577 24.801 259.997 23.048 A 39.588 39.588 0 0 1 260.7 22.55 A 34.301 34.301 0 0 1 266.647 19.305 Q 269.618 18.024 273.161 17.037 A 67.635 67.635 0 0 1 276.5 16.2 Q 284.7 14.4 293.2 13.85 A 691.833 691.833 0 0 0 300.255 13.359 Q 303.471 13.118 306.332 12.868 A 388.662 388.662 0 0 0 308.2 12.7 A 18.856 18.856 0 0 1 308.416 12.385 Q 308.873 11.728 309.85 10.4 A 34.423 34.423 0 0 1 311.569 8.256 A 41.894 41.894 0 0 1 312.75 6.95 A 11.495 11.495 0 0 1 313.878 5.895 Q 314.498 5.394 315.11 5.073 A 5.363 5.363 0 0 1 316 4.7 A 10.255 10.255 0 0 1 316.783 4.517 Q 317.167 4.444 317.506 4.417 A 4.87 4.87 0 0 1 317.9 4.4 A 5.232 5.232 0 0 1 319.097 4.529 A 3.508 3.508 0 0 1 320.75 5.4 Q 321.8 6.4 321.8 7.8 A 3.479 3.479 0 0 1 321.397 9.368 Q 320.836 10.485 319.495 11.672 A 15.026 15.026 0 0 1 319.05 12.05 Q 316.3 14.3 309.8 15 A 98.219 98.219 0 0 0 305.995 22.864 A 119.403 119.403 0 0 0 303.9 28.05 A 495.058 495.058 0 0 0 299.213 41.022 A 548.744 548.744 0 0 0 298.55 42.95 Q 295.9 50.7 292.75 58.45 Q 289.6 66.2 285.6 73.35 Q 281.6 80.5 276.15 86.4 Q 270.7 92.3 263.35 96.3 A 47.491 47.491 0 0 1 253.382 100.285 A 60.984 60.984 0 0 1 246.3 101.8 A 103.575 103.575 0 0 1 242.814 102.149 A 110.977 110.977 0 0 1 242.8 102.15 A 42.64 42.64 0 0 1 239.727 102.298 A 38.964 38.964 0 0 1 239.3 102.3 Q 232.5 102.3 226.15 100.45 A 38.113 38.113 0 0 1 216.36 96.082 A 35.397 35.397 0 0 1 214.75 95 Q 209.7 91.4 206.75 86.2 A 22.77 22.77 0 0 1 203.904 76.826 A 27.892 27.892 0 0 1 203.8 74.4 A 23.833 23.833 0 0 1 203.969 71.616 A 27.422 27.422 0 0 1 204.1 70.65 Q 204.4 68.7 204.9 66.6 A 16.739 16.739 0 0 1 206.983 61.916 A 15.367 15.367 0 0 1 208.15 60.35 A 25.035 25.035 0 0 1 210.401 58.008 A 18.585 18.585 0 0 1 212.8 56.15 Q 215.2 54.6 216.4 54.5 Z M 50.26 91.18 A 8.706 8.706 0 0 0 52.7 91.5 Q 57 91.5 60.95 88.9 A 30.228 30.228 0 0 0 62.671 87.681 A 25.528 25.528 0 0 0 67.5 82.9 A 58.202 58.202 0 0 0 68.502 81.54 A 67.194 67.194 0 0 0 71.2 77.45 A 130.119 130.119 0 0 0 72.081 75.985 A 114.739 114.739 0 0 0 74.5 71.7 Q 76 68.9 76.9 66.9 Q 77.117 66.322 77.177 65.953 A 1.59 1.59 0 0 0 77.2 65.7 A 1.292 1.292 0 0 0 77.197 65.617 Q 77.173 65.237 76.916 65.137 A 0.589 0.589 0 0 0 76.7 65.1 A 0.36 0.36 0 0 0 76.618 65.111 Q 76.403 65.162 75.95 65.45 A 2.035 2.035 0 0 0 75.422 65.94 A 2.63 2.63 0 0 0 75.1 66.5 Q 73.2 70.4 70.95 74 A 105.658 105.658 0 0 1 70.668 74.449 A 96.535 96.535 0 0 1 66.3 80.8 A 33.525 33.525 0 0 1 63.631 83.774 A 24.66 24.66 0 0 1 60.5 86.4 Q 58.648 87.696 57.064 88.192 A 6.243 6.243 0 0 1 55.2 88.5 Q 54.068 88.5 53.202 87.932 A 4.017 4.017 0 0 1 52.15 86.9 A 4.107 4.107 0 0 1 51.816 86.343 Q 51.257 85.229 51.081 83.418 A 18.858 18.858 0 0 1 51 81.6 Q 51 80.5 51.1 79.1 Q 51.2 77.7 51.5 76.1 A 43.54 43.54 0 0 1 52.18 73.081 A 50.792 50.792 0 0 1 54.5 66.3 Q 56.6 61.3 59.3 56.8 A 66.918 66.918 0 0 1 59.643 56.235 Q 60.846 54.275 62.068 52.591 A 40.921 40.921 0 0 1 64.8 49.2 A 13.983 13.983 0 0 0 65.352 48.544 Q 67.3 46.072 67.3 43.6 A 6.064 6.064 0 0 0 67.29 43.254 Q 67.224 42.092 66.7 41.35 A 1.916 1.916 0 0 0 65.769 40.625 A 2.267 2.267 0 0 0 65 40.5 Q 64.175 40.5 63.069 41.26 A 9.807 9.807 0 0 0 62.3 41.85 Q 61.175 42.799 60.001 44.663 A 27.215 27.215 0 0 0 59 46.4 Q 56.4 51.2 52.2 56.9 Q 48 62.6 42.95 68.1 A 117.289 117.289 0 0 1 41.047 70.124 A 103.672 103.672 0 0 1 32.6 78 A 65.008 65.008 0 0 1 31.549 78.855 Q 29.28 80.66 27.096 82.054 A 37.294 37.294 0 0 1 22.45 84.6 Q 19.646 85.872 17.193 86.409 A 15.899 15.899 0 0 1 13.8 86.8 A 10.866 10.866 0 0 1 12.115 86.674 A 7.621 7.621 0 0 1 7.6 84.35 A 7.315 7.315 0 0 1 6.279 82.351 Q 5.3 80.197 5.3 77 Q 5.3 74.3 6.1 70.85 Q 6.525 69.017 7.176 66.973 A 71.793 71.793 0 0 1 8.5 63.2 A 78.387 78.387 0 0 1 10.247 59.255 A 100.143 100.143 0 0 1 13 53.9 Q 15.7 49 18.45 44.7 Q 21.2 40.4 23 37.9 Q 27.8 39.4 32.65 40.1 Q 37.5 40.8 42.7 40.8 A 97.357 97.357 0 0 0 44.751 40.779 A 80 80 0 0 0 47.95 40.65 A 112.554 112.554 0 0 0 48.278 40.63 Q 50.606 40.48 53.5 40.2 A 87.824 87.824 0 0 0 57.277 39.777 Q 60.308 39.369 62.945 38.774 A 44.262 44.262 0 0 0 68.25 37.25 Q 74.2 35.1 77.8 32.15 A 28.664 28.664 0 0 0 78.721 31.363 Q 80.05 30.177 81.061 28.959 A 15.707 15.707 0 0 0 83 26.05 Q 83.813 24.451 84.212 22.967 A 10.622 10.622 0 0 0 84.6 20.2 A 11 11 0 0 0 83.063 14.41 A 12.241 12.241 0 0 0 80 11.05 Q 76.909 8.665 72.239 7.882 A 29.928 29.928 0 0 0 67.3 7.5 Q 57.6 7.5 48.8 11.1 Q 40 14.7 32.35 20.65 Q 24.7 26.6 18.3 33.6 A 29.201 29.201 0 0 1 13.824 31.14 A 20.972 20.972 0 0 1 9.5 27.3 Q 8.4 26.1 7.6 24.75 Q 6.8 23.4 6.8 21.8 A 4.935 4.935 0 0 1 6.802 21.645 Q 6.82 21.096 6.958 20.499 A 8.283 8.283 0 0 1 7.3 19.4 A 4.969 4.969 0 0 0 7.348 19.301 Q 7.507 18.966 7.594 18.649 A 2.825 2.825 0 0 0 7.7 17.9 Q 7.7 17.074 7.192 16.868 A 1.04 1.04 0 0 0 6.8 16.8 Q 6.1 16.8 5.6 17.6 A 2.5 2.5 0 0 0 5.131 18.006 Q 4.1 19.147 4.1 21.8 A 11.174 11.174 0 0 0 4.171 23.05 A 12.933 12.933 0 0 0 4.7 25.5 A 10.691 10.691 0 0 0 4.86 25.969 A 9.162 9.162 0 0 0 6.5 28.8 A 19.437 19.437 0 0 0 8.028 30.387 A 23.398 23.398 0 0 0 10.9 32.65 A 35.314 35.314 0 0 0 12.061 33.399 A 39.791 39.791 0 0 0 16.6 35.8 Q 14 38.7 11.75 41.95 Q 9.5 45.2 7.7 48.5 A 75.545 75.545 0 0 0 5.306 53.146 A 61.817 61.817 0 0 0 1.95 61.85 Q 0 68.4 0 74.1 A 31.567 31.567 0 0 0 0.007 74.748 Q 0.053 76.997 0.422 78.968 A 18.248 18.248 0 0 0 1.8 83.35 A 13.014 13.014 0 0 0 1.973 83.706 A 10.078 10.078 0 0 0 7.3 88.7 Q 8.7 89.3 10.15 89.55 Q 11.6 89.8 13.1 89.8 A 20.764 20.764 0 0 0 17.809 89.251 A 25.198 25.198 0 0 0 23.2 87.3 A 50.444 50.444 0 0 0 25.102 86.317 A 56.035 56.035 0 0 0 33.1 81 A 101.067 101.067 0 0 0 34.288 80.046 A 91.202 91.202 0 0 0 41.9 73.1 Q 44.4 70.538 46.392 68.327 A 103.412 103.412 0 0 0 48.6 65.8 A 11.734 11.734 0 0 0 47.576 67.426 Q 46.614 69.244 45.85 71.9 Q 44.7 75.9 44.7 80 A 20.562 20.562 0 0 0 44.953 83.289 A 15.615 15.615 0 0 0 46.5 88.05 A 5.997 5.997 0 0 0 50.26 91.18 Z M 497.8 50.5 L 504 50.5 A 18.479 18.479 0 0 1 503.426 50.971 Q 502.906 51.381 502.25 51.85 Q 501.385 52.468 500.621 53.596 A 10.92 10.92 0 0 0 500.3 54.1 A 118.699 118.699 0 0 0 497.198 59.714 A 98.021 98.021 0 0 0 495.6 62.95 Q 493.6 67.2 491.3 72 A 29.965 29.965 0 0 0 490.452 73.936 Q 489.981 75.131 489.7 76.2 A 18.121 18.121 0 0 0 489.395 77.555 Q 489.2 78.625 489.2 79.5 Q 489.2 82.8 491.4 82.8 A 3.909 3.909 0 0 0 492.998 82.419 Q 494.348 81.813 495.946 80.239 A 24.145 24.145 0 0 0 497.2 78.9 Q 500 75.6 502.85 71.05 Q 505.7 66.5 508.35 61.65 Q 511 56.8 513 52.7 A 3.731 3.731 0 0 1 515.643 50.629 A 5.769 5.769 0 0 1 516.9 50.5 L 522.4 50.5 Q 519.5 52.5 517.95 55.7 A 69.574 69.574 0 0 0 516.791 58.233 Q 516.254 59.465 515.681 60.882 A 155.004 155.004 0 0 0 514.5 63.9 Q 512.4 69.4 510.55 75.25 Q 508.7 81.1 506.4 87 Q 509.104 86.099 512.378 84.392 A 65.418 65.418 0 0 0 513.85 83.6 Q 518 81.3 520.9 77 A 74.635 74.635 0 0 0 523.402 73.051 A 60.137 60.137 0 0 0 524.85 70.45 Q 526.369 67.549 527.083 66.133 A 84.633 84.633 0 0 0 527.2 65.9 Q 527.6 64.9 528.3 64.9 Q 529 64.9 529 65.8 A 1.97 1.97 0 0 1 528.934 66.291 Q 528.859 66.581 528.7 66.9 A 231.374 231.374 0 0 1 526.827 70.568 Q 525.892 72.358 525.041 73.896 A 111.084 111.084 0 0 1 524.05 75.65 A 34.719 34.719 0 0 1 521.617 79.328 A 27.807 27.807 0 0 1 519.55 81.75 Q 517.1 84.3 513.6 86.25 Q 510.954 87.724 507.223 89.227 A 96.27 96.27 0 0 1 504.7 90.2 A 137.31 137.31 0 0 1 501.446 95.712 A 164.655 164.655 0 0 1 499.25 99.15 Q 496.2 103.8 492.35 107.85 Q 488.5 111.9 483.85 114.45 A 20.89 20.89 0 0 1 473.949 116.998 A 24.405 24.405 0 0 1 473.6 117 A 20.856 20.856 0 0 1 471.049 116.856 Q 468.308 116.517 466.73 115.383 A 5.371 5.371 0 0 1 466.2 114.95 Q 464 112.9 464 110.1 Q 464 108.6 464.4 107.5 A 20.945 20.945 0 0 1 464.689 106.754 Q 465.05 105.869 465.6 104.7 Q 467 101.8 469.5 99.7 Q 472 97.6 474.9 96.3 A 53.089 53.089 0 0 1 481.209 93.885 A 69.075 69.075 0 0 1 486.75 92.4 A 207.852 207.852 0 0 0 496.416 89.981 A 187.281 187.281 0 0 0 499.5 89.1 A 45.839 45.839 0 0 0 501.529 85.117 A 59.727 59.727 0 0 0 503 81.55 A 180.091 180.091 0 0 0 505.57 74.266 A 163.18 163.18 0 0 0 505.9 73.25 A 956.938 956.938 0 0 0 506.519 71.316 Q 507.4 68.55 508 66.6 Q 507.175 68.113 506.043 70.074 A 288.876 288.876 0 0 1 504.95 71.95 Q 503.1 75.1 500.8 78.1 A 28.289 28.289 0 0 1 497.945 81.31 A 23.314 23.314 0 0 1 495.85 83.1 A 10.487 10.487 0 0 1 493.397 84.502 A 8.346 8.346 0 0 1 490.3 85.1 A 6.097 6.097 0 0 1 489.412 85.03 Q 488.966 84.964 488.464 84.836 A 13.531 13.531 0 0 1 487.65 84.6 A 5.773 5.773 0 0 1 485.253 83.084 A 7.056 7.056 0 0 1 484.95 82.75 A 4.242 4.242 0 0 1 484.184 81.371 Q 483.968 80.747 483.874 79.98 A 10.473 10.473 0 0 1 483.8 78.7 A 10.947 10.947 0 0 1 484.973 73.803 A 12.71 12.71 0 0 1 485.05 73.65 Q 486.3 71.2 487.4 68.9 A 1.048 1.048 0 0 1 487.108 68.856 Q 486.936 68.806 486.75 68.7 Q 486.4 68.5 486.4 68.1 A 1.703 1.703 0 0 1 486.517 67.488 A 2.091 2.091 0 0 1 486.6 67.3 Q 487 66.5 487.5 65.6 Q 488 64.7 488.4 63.7 Q 489.9 60.6 491.4 57.75 A 345.039 345.039 0 0 0 492.636 55.381 Q 493.195 54.299 493.683 53.332 A 192.341 192.341 0 0 0 494 52.7 Q 494.931 50.839 497.006 50.552 A 5.802 5.802 0 0 1 497.8 50.5 Z M 77.7 85.1 L 71.4 85.1 Q 70.414 85.1 70.312 84.377 A 1.265 1.265 0 0 1 70.3 84.2 A 1.494 1.494 0 0 1 70.314 83.989 Q 70.338 83.825 70.4 83.7 A 0.955 0.955 0 0 0 70.448 83.58 Q 70.517 83.377 70.585 82.986 A 10.47 10.47 0 0 0 70.6 82.9 Q 72 77.7 74.3 73.1 A 260.528 260.528 0 0 0 77.75 65.919 A 295.339 295.339 0 0 0 78.9 63.4 A 575.345 575.345 0 0 1 75.962 68.791 Q 74.605 71.247 73.364 73.427 A 330.083 330.083 0 0 1 72.55 74.85 Q 69.873 79.499 68.387 81.017 A 5.833 5.833 0 0 1 68.2 81.2 A 0.675 0.675 0 0 1 67.719 81.4 A 0.886 0.886 0 0 1 67.7 81.4 A 0.489 0.489 0 0 1 67.277 81.177 Q 67.219 81.094 67.177 80.98 A 1.291 1.291 0 0 1 67.15 80.9 A 0.945 0.945 0 0 1 67.109 80.627 Q 67.109 80.264 67.4 79.9 Q 69.5 77.1 72.25 72.2 Q 75 67.3 78.1 61.25 Q 81.2 55.2 84.4 49 Q 87.6 42.8 90.65 37.3 Q 92.985 33.089 94.998 29.875 A 99.242 99.242 0 0 1 96.2 28 Q 97.958 25.364 99.525 24.205 A 6.933 6.933 0 0 1 99.6 24.15 A 6.513 6.513 0 0 1 101.058 23.349 A 5.089 5.089 0 0 1 102.9 23 L 103.4 23 A 6.492 6.492 0 0 1 104.235 23.058 Q 104.803 23.131 105.45 23.3 A 5.607 5.607 0 0 0 106.291 23.455 Q 106.975 23.525 107.6 23.4 Q 105.7 24.9 103 28.3 Q 100.68 31.222 98.138 35.104 A 132.718 132.718 0 0 0 97.3 36.4 Q 94.3 41.1 91.25 46.4 Q 88.2 51.7 85.5 56.9 A 60.532 60.532 0 0 0 83.827 60.553 A 66.375 66.375 0 0 0 83.6 61.1 Q 82.7 63.3 81.9 65.5 A 75.305 75.305 0 0 1 84.605 62.342 A 94.466 94.466 0 0 1 86.7 60.1 Q 89.4 57.3 92.35 54.95 Q 95.3 52.6 98.2 51.5 A 26.906 26.906 0 0 1 100.155 50.867 Q 102.188 50.3 103.7 50.3 A 7.638 7.638 0 0 1 104.895 50.387 Q 106.295 50.61 107.05 51.4 A 3.758 3.758 0 0 1 108.073 53.671 A 5.073 5.073 0 0 1 108.1 54.2 A 6.114 6.114 0 0 1 107.898 55.697 Q 107.549 57.073 106.6 58.75 A 14.332 14.332 0 0 1 102.661 63.181 A 16.428 16.428 0 0 1 102.5 63.3 Q 100.3 64.8 97.9 65.9 Q 95.5 67 92.2 67.3 Q 91.6 68.7 91.35 70.15 Q 91.1 71.6 91.1 73 A 14.304 14.304 0 0 0 91.579 76.77 A 11.863 11.863 0 0 0 92.9 79.85 Q 94.7 82.8 97.6 82.8 A 5.729 5.729 0 0 0 99.015 82.613 Q 99.799 82.413 100.65 82 A 8.994 8.994 0 0 0 102.015 81.169 Q 103.031 80.428 104.1 79.3 Q 105.553 77.847 107.033 75.497 A 39.495 39.495 0 0 0 108.15 73.6 Q 110.2 69.9 112.3 65.5 A 2.755 2.755 0 0 1 112.486 65.179 Q 112.723 64.832 112.991 64.737 A 0.617 0.617 0 0 1 113.2 64.7 A 0.63 0.63 0 0 1 113.476 64.757 Q 113.8 64.913 113.8 65.5 A 1.396 1.396 0 0 1 113.765 65.799 Q 113.697 66.106 113.5 66.5 Q 111.552 71.002 109.716 74.262 A 43.53 43.53 0 0 1 107.95 77.15 A 39.18 39.18 0 0 1 106.152 79.63 Q 105.252 80.767 104.376 81.661 A 16.732 16.732 0 0 1 102.85 83.05 A 15.698 15.698 0 0 1 101.034 84.309 Q 99.982 84.927 98.959 85.265 A 8.479 8.479 0 0 1 98.1 85.5 A 15.427 15.427 0 0 1 94.814 85.857 A 15.164 15.164 0 0 1 93.5 85.8 A 7.399 7.399 0 0 1 89.688 84.198 A 9.938 9.938 0 0 1 88.65 83.25 A 10.524 10.524 0 0 1 86.658 80.229 Q 86.088 78.948 85.745 77.407 A 18.149 18.149 0 0 1 85.7 77.2 A 30.477 30.477 0 0 1 85.622 76.616 Q 85.589 76.349 85.565 76.108 A 17.851 17.851 0 0 1 85.55 75.95 A 11.515 11.515 0 0 1 85.514 75.402 Q 85.502 75.113 85.5 74.793 A 19.192 19.192 0 0 1 85.5 74.7 A 14.494 14.494 0 0 1 85.732 72.025 Q 86.147 69.82 87.3 68.25 A 12.557 12.557 0 0 1 88.127 67.231 Q 89.452 65.777 90.6 65.7 A 5.525 5.525 0 0 0 90.945 65.711 Q 92.033 65.711 93.416 65.309 A 15.963 15.963 0 0 0 94.5 64.95 A 12.956 12.956 0 0 0 97.555 63.351 A 11.719 11.719 0 0 0 98.5 62.6 A 11.464 11.464 0 0 0 99.836 61.371 Q 101.4 59.663 101.4 57.9 Q 101.4 55.4 98.5 55.4 A 6.148 6.148 0 0 0 97.307 55.529 Q 96.145 55.76 94.663 56.406 A 21.359 21.359 0 0 0 94.45 56.5 A 16.119 16.119 0 0 0 92.677 57.446 Q 91.789 57.987 90.819 58.701 A 39.055 39.055 0 0 0 88.8 60.3 Q 85.523 63.086 82.044 67.416 A 82.376 82.376 0 0 0 80.5 69.4 Q 79.9 70.7 79.1 73.25 Q 78.3 75.8 77.75 78.5 A 33.198 33.198 0 0 0 77.416 80.408 Q 77.288 81.3 77.236 82.082 A 15.373 15.373 0 0 0 77.2 83.1 A 7.062 7.062 0 0 0 77.227 83.748 Q 77.317 84.717 77.7 85.1 Z M 363.3 85.1 L 357 85.1 Q 356.014 85.1 355.912 84.377 A 1.265 1.265 0 0 1 355.9 84.2 A 1.494 1.494 0 0 1 355.914 83.989 Q 355.938 83.825 356 83.7 A 0.955 0.955 0 0 0 356.048 83.58 Q 356.117 83.377 356.185 82.986 A 10.47 10.47 0 0 0 356.2 82.9 Q 357.6 77.7 359.9 73.1 A 260.528 260.528 0 0 0 363.35 65.919 A 295.339 295.339 0 0 0 364.5 63.4 A 575.345 575.345 0 0 1 361.562 68.791 Q 360.205 71.247 358.964 73.427 A 330.083 330.083 0 0 1 358.15 74.85 Q 355.473 79.499 353.987 81.017 A 5.833 5.833 0 0 1 353.8 81.2 A 0.675 0.675 0 0 1 353.319 81.4 A 0.886 0.886 0 0 1 353.3 81.4 A 0.489 0.489 0 0 1 352.877 81.177 Q 352.819 81.094 352.777 80.98 A 1.291 1.291 0 0 1 352.75 80.9 A 0.945 0.945 0 0 1 352.709 80.627 Q 352.709 80.264 353 79.9 Q 355.1 77.1 357.85 72.2 Q 360.6 67.3 363.7 61.25 Q 366.8 55.2 370 49 Q 373.2 42.8 376.25 37.3 Q 378.585 33.089 380.598 29.875 A 99.242 99.242 0 0 1 381.8 28 Q 383.558 25.364 385.125 24.205 A 6.933 6.933 0 0 1 385.2 24.15 A 6.513 6.513 0 0 1 386.658 23.349 A 5.089 5.089 0 0 1 388.5 23 L 389 23 A 6.492 6.492 0 0 1 389.835 23.058 Q 390.403 23.131 391.05 23.3 A 5.607 5.607 0 0 0 391.891 23.455 Q 392.575 23.525 393.2 23.4 Q 391.3 24.9 388.6 28.3 Q 386.28 31.222 383.738 35.104 A 132.718 132.718 0 0 0 382.9 36.4 Q 379.9 41.1 376.85 46.4 Q 373.8 51.7 371.1 56.9 A 60.532 60.532 0 0 0 369.427 60.553 A 66.375 66.375 0 0 0 369.2 61.1 Q 368.3 63.3 367.5 65.5 A 75.305 75.305 0 0 1 370.205 62.342 A 94.466 94.466 0 0 1 372.3 60.1 Q 375 57.3 377.95 54.95 Q 380.9 52.6 383.8 51.5 A 26.906 26.906 0 0 1 385.755 50.867 Q 387.788 50.3 389.3 50.3 A 7.638 7.638 0 0 1 390.495 50.387 Q 391.895 50.61 392.65 51.4 A 3.758 3.758 0 0 1 393.673 53.671 A 5.073 5.073 0 0 1 393.7 54.2 A 6.114 6.114 0 0 1 393.498 55.697 Q 393.149 57.073 392.2 58.75 A 14.332 14.332 0 0 1 388.261 63.181 A 16.428 16.428 0 0 1 388.1 63.3 Q 385.9 64.8 383.5 65.9 Q 381.1 67 377.8 67.3 Q 377.2 68.7 376.95 70.15 Q 376.7 71.6 376.7 73 A 14.304 14.304 0 0 0 377.179 76.77 A 11.863 11.863 0 0 0 378.5 79.85 Q 380.3 82.8 383.2 82.8 A 5.729 5.729 0 0 0 384.615 82.613 Q 385.399 82.413 386.25 82 A 8.994 8.994 0 0 0 387.615 81.169 Q 388.631 80.428 389.7 79.3 Q 391.153 77.847 392.633 75.497 A 39.495 39.495 0 0 0 393.75 73.6 Q 395.8 69.9 397.9 65.5 A 2.755 2.755 0 0 1 398.086 65.179 Q 398.323 64.832 398.591 64.737 A 0.617 0.617 0 0 1 398.8 64.7 A 0.63 0.63 0 0 1 399.076 64.757 Q 399.4 64.913 399.4 65.5 A 1.396 1.396 0 0 1 399.365 65.799 Q 399.297 66.106 399.1 66.5 Q 397.152 71.002 395.316 74.262 A 43.53 43.53 0 0 1 393.55 77.15 A 39.18 39.18 0 0 1 391.752 79.63 Q 390.852 80.767 389.976 81.661 A 16.732 16.732 0 0 1 388.45 83.05 A 15.698 15.698 0 0 1 386.634 84.309 Q 385.582 84.927 384.559 85.265 A 8.479 8.479 0 0 1 383.7 85.5 A 15.427 15.427 0 0 1 380.414 85.857 A 15.164 15.164 0 0 1 379.1 85.8 A 7.399 7.399 0 0 1 375.288 84.198 A 9.938 9.938 0 0 1 374.25 83.25 A 10.524 10.524 0 0 1 372.258 80.229 Q 371.688 78.948 371.345 77.407 A 18.149 18.149 0 0 1 371.3 77.2 A 30.477 30.477 0 0 1 371.222 76.616 Q 371.189 76.349 371.165 76.108 A 17.851 17.851 0 0 1 371.15 75.95 A 11.515 11.515 0 0 1 371.114 75.402 Q 371.102 75.113 371.1 74.793 A 19.192 19.192 0 0 1 371.1 74.7 A 14.494 14.494 0 0 1 371.332 72.025 Q 371.747 69.82 372.9 68.25 A 12.557 12.557 0 0 1 373.727 67.231 Q 375.052 65.777 376.2 65.7 A 5.525 5.525 0 0 0 376.545 65.711 Q 377.633 65.711 379.016 65.309 A 15.963 15.963 0 0 0 380.1 64.95 A 12.956 12.956 0 0 0 383.155 63.351 A 11.719 11.719 0 0 0 384.1 62.6 A 11.464 11.464 0 0 0 385.436 61.371 Q 387 59.663 387 57.9 Q 387 55.4 384.1 55.4 A 6.148 6.148 0 0 0 382.907 55.529 Q 381.745 55.76 380.263 56.406 A 21.359 21.359 0 0 0 380.05 56.5 A 16.119 16.119 0 0 0 378.277 57.446 Q 377.389 57.987 376.419 58.701 A 39.055 39.055 0 0 0 374.4 60.3 Q 371.123 63.086 367.644 67.416 A 82.376 82.376 0 0 0 366.1 69.4 Q 365.5 70.7 364.7 73.25 Q 363.9 75.8 363.35 78.5 A 33.198 33.198 0 0 0 363.016 80.408 Q 362.888 81.3 362.836 82.082 A 15.373 15.373 0 0 0 362.8 83.1 A 7.062 7.062 0 0 0 362.827 83.748 Q 362.917 84.717 363.3 85.1 Z M 323.9 103.6 Q 318.4 103.6 313.75 101.1 Q 309.1 98.6 305.5 94.35 Q 301.9 90.1 299.5 84.8 Q 297.5 80.3 296.25 75.7 A 84.521 84.521 0 0 1 295.049 70.715 A 66.017 66.017 0 0 1 294.4 67.1 Q 293.997 64.413 293.865 62.357 A 29.059 29.059 0 0 1 293.8 60.5 Q 293.8 58.017 294.222 57.22 A 0.764 0.764 0 0 1 294.5 56.9 A 3.773 3.773 0 0 0 294.839 56.92 Q 296.317 56.942 299.04 55.987 A 41.217 41.217 0 0 0 300.85 55.3 A 62.995 62.995 0 0 0 304.427 53.711 Q 306.016 52.949 307.772 52.022 A 134.315 134.315 0 0 0 311.45 50 Q 317.6 46.5 324.75 41.55 A 172.785 172.785 0 0 0 335.531 33.422 A 198.596 198.596 0 0 0 339.15 30.4 Q 346.4 24.2 353.1 17 Q 359.8 9.8 364.9 1.9 A 8.378 8.378 0 0 1 365.439 1.137 Q 366.349 0 367.2 0 A 1.04 1.04 0 0 1 367.592 0.068 Q 368.1 0.274 368.1 1.1 A 2.776 2.776 0 0 1 367.971 1.911 Q 367.864 2.26 367.67 2.634 A 6.142 6.142 0 0 1 367.4 3.1 A 110.475 110.475 0 0 1 358.412 15.869 A 125.105 125.105 0 0 1 356 18.75 Q 349.4 26.4 341.9 33.1 A 184.026 184.026 0 0 1 330.622 42.419 A 163.295 163.295 0 0 1 326.85 45.2 Q 319.3 50.6 312.45 54.2 Q 307.278 56.919 303.046 58.326 A 36.332 36.332 0 0 1 300.4 59.1 A 0.193 0.193 0 0 0 300.359 59.079 Q 300.123 58.993 300.102 59.913 A 8.283 8.283 0 0 0 300.1 60.1 Q 300.1 61.382 300.498 63.829 A 75.169 75.169 0 0 0 300.8 65.55 A 63.393 63.393 0 0 0 301.556 69.023 Q 302.134 71.378 302.95 74.05 Q 304.4 78.8 306.5 83.7 A 44.132 44.132 0 0 0 309.076 88.84 Q 310.616 91.446 312.377 93.444 A 23.027 23.027 0 0 0 314.15 95.25 Q 318.6 99.3 324.4 99.3 A 28.778 28.778 0 0 0 330.806 98.556 A 33.287 33.287 0 0 0 332.4 98.15 Q 336.5 97 339.9 94.65 Q 343.3 92.3 345.2 88.7 A 4.825 4.825 0 0 1 345.472 88.155 Q 345.975 87.3 346.6 87.3 A 0.366 0.366 0 0 1 346.81 87.358 Q 347 87.487 347 87.9 A 2.394 2.394 0 0 1 346.917 88.502 Q 346.797 88.966 346.5 89.5 A 19.659 19.659 0 0 1 343.693 93.718 A 25.841 25.841 0 0 1 341 96.4 Q 337.3 99.6 332.75 101.6 A 24.474 24.474 0 0 1 327.986 103.161 A 19.642 19.642 0 0 1 323.9 103.6 Z M 102.2 85.9 Q 106.4 77.3 110.95 67.85 Q 115.5 58.4 120.3 48.8 A 672.359 672.359 0 0 1 127.444 34.906 A 594.052 594.052 0 0 1 129.8 30.5 A 46.265 46.265 0 0 1 130.939 28.591 Q 131.502 27.701 132.034 26.969 A 19.24 19.24 0 0 1 132.95 25.8 A 4.735 4.735 0 0 1 136.422 24.111 A 6.468 6.468 0 0 1 136.8 24.1 A 6.611 6.611 0 0 1 137.581 24.15 Q 138.188 24.222 138.9 24.4 A 5.958 5.958 0 0 0 139.96 24.569 Q 140.595 24.61 141.2 24.5 A 14.859 14.859 0 0 0 140.491 25.331 Q 139.338 26.775 137.65 29.4 A 124.32 124.32 0 0 0 135.892 32.222 Q 134.369 34.738 132.65 37.8 Q 129.9 42.7 126.85 48.35 Q 123.8 54 120.85 59.75 Q 117.9 65.5 115.4 70.5 Q 117.4 67.9 119.5 65.6 Q 121.6 63.3 123.6 61.6 A 34.677 34.677 0 0 1 125.661 59.877 Q 126.777 59.011 128.091 58.11 A 64.809 64.809 0 0 1 129.15 57.4 A 58.12 58.12 0 0 1 134.594 54.221 A 51.932 51.932 0 0 1 135.85 53.6 Q 138.773 52.204 140.668 52.026 A 5.695 5.695 0 0 1 141.2 52 A 7.84 7.84 0 0 1 141.525 52.006 Q 141.837 52.019 142.04 52.059 A 1.3 1.3 0 0 1 142.2 52.1 L 141.1 54.1 Q 140.055 56.001 138.513 58.894 A 765.327 765.327 0 0 0 138.35 59.2 A 191.052 191.052 0 0 0 136.248 63.271 A 232.177 232.177 0 0 0 134.95 65.9 A 112.7 112.7 0 0 0 132.938 70.264 A 92.07 92.07 0 0 0 131.9 72.75 A 49.39 49.39 0 0 0 131.175 74.669 Q 130.522 76.525 130.238 77.906 A 14.24 14.24 0 0 0 130.2 78.1 A 21.691 21.691 0 0 0 130.023 79.186 Q 129.954 79.697 129.924 80.144 A 9.721 9.721 0 0 0 129.9 80.8 A 6.674 6.674 0 0 0 129.935 81.514 Q 130.045 82.533 130.5 82.95 Q 131.1 83.5 131.8 83.5 A 3.327 3.327 0 0 0 133.167 83.183 Q 134.167 82.734 135.258 81.648 A 12.936 12.936 0 0 0 135.5 81.4 Q 137.469 79.333 139.341 76.345 A 43.758 43.758 0 0 0 139.4 76.25 Q 141.3 73.2 142.85 70.3 A 372.323 372.323 0 0 0 143.578 68.931 Q 144.281 67.604 144.784 66.622 A 94.572 94.572 0 0 0 145.2 65.8 Q 145.624 65.022 146.049 64.794 A 0.737 0.737 0 0 1 146.4 64.7 A 0.63 0.63 0 0 1 146.676 64.757 Q 147 64.913 147 65.5 A 1.59 1.59 0 0 1 146.977 65.753 Q 146.917 66.122 146.7 66.7 A 903.157 903.157 0 0 1 145.359 69.371 Q 144.648 70.781 143.856 72.341 A 1472.891 1472.891 0 0 1 143.75 72.55 Q 142.1 75.8 140.05 78.75 A 24.123 24.123 0 0 1 137.622 81.732 A 19.337 19.337 0 0 1 135.55 83.6 A 9.361 9.361 0 0 1 133.094 84.995 A 7.914 7.914 0 0 1 130.3 85.5 A 6.349 6.349 0 0 1 128.018 85.057 Q 127.203 84.745 126.372 84.213 A 11.247 11.247 0 0 1 126.2 84.1 Q 124.1 82.7 124.1 79 Q 124.1 77.9 124.3 76.65 A 16.226 16.226 0 0 1 124.532 75.489 Q 124.719 74.7 125 73.8 A 16.766 16.766 0 0 1 125.663 71.998 Q 126.05 71.099 126.571 70.125 A 31.576 31.576 0 0 1 127 69.35 Q 128.4 66.9 130.6 63.2 A 12.164 12.164 0 0 0 131.061 62.346 Q 131.473 61.496 131.57 60.866 A 2.41 2.41 0 0 0 131.6 60.5 A 1.728 1.728 0 0 0 131.541 60.025 Q 131.388 59.493 130.844 59.351 A 1.768 1.768 0 0 0 130.4 59.3 Q 129.556 59.3 128.213 60.013 A 13.416 13.416 0 0 0 127.7 60.3 A 13.054 13.054 0 0 0 126.581 61.049 Q 125.53 61.824 124.224 63.025 A 50.606 50.606 0 0 0 123.4 63.8 A 43.151 43.151 0 0 0 121.72 65.515 Q 120.022 67.339 117.904 69.931 A 147.707 147.707 0 0 0 117.2 70.8 A 47.301 47.301 0 0 0 114.597 74.4 Q 112.056 78.253 109.3 83.7 A 4.683 4.683 0 0 1 108.964 84.241 Q 108.401 85.012 107.75 85.05 Q 106.9 85.1 105.5 85.2 Q 104.6 85.3 103.7 85.35 A 2.896 2.896 0 0 0 102.952 85.486 A 2.274 2.274 0 0 0 102.2 85.9 Z M 418.68 85.415 A 3.538 3.538 0 0 0 419 85.4 A 5.72 5.72 0 0 0 419.835 85.261 Q 420.822 85.021 421.798 84.426 A 10.307 10.307 0 0 0 423.35 83.25 Q 425.5 81.3 427.5 78.35 Q 429.5 75.4 431.2 72.25 A 185.99 185.99 0 0 0 431.668 71.377 Q 433.069 68.749 434.1 66.6 A 12.457 12.457 0 0 0 434.159 66.439 Q 434.337 65.944 434.384 65.668 A 1.034 1.034 0 0 0 434.4 65.5 Q 434.4 64.8 433.9 64.8 A 1.061 1.061 0 0 0 433.278 64.991 Q 432.925 65.237 432.7 65.8 Q 431.8 67.6 430.3 70.45 Q 428.8 73.3 427 76.1 A 41.04 41.04 0 0 1 426.771 76.452 Q 425.083 79.021 423.35 80.8 A 11.873 11.873 0 0 1 423.211 80.94 Q 421.44 82.7 419.9 82.7 Q 418.3 82.7 418.3 79.9 A 5.026 5.026 0 0 1 418.309 79.618 Q 418.337 79.13 418.45 78.3 A 116.096 116.096 0 0 1 418.518 77.812 Q 418.589 77.305 418.647 76.931 A 30.145 30.145 0 0 1 418.7 76.6 A 22.112 22.112 0 0 1 418.999 75.482 Q 419.251 74.628 419.598 73.663 A 47.962 47.962 0 0 1 420.4 71.6 Q 421.6 68.7 423.1 65.9 Q 424.6 63.1 425.95 60.9 A 40.561 40.561 0 0 1 426.581 59.902 Q 427.497 58.503 428.1 57.9 Q 426.9 58.1 425.8 57.8 Q 424.7 57.5 423.6 57.5 A 5.83 5.83 0 0 0 422.947 57.536 A 4.174 4.174 0 0 0 419.9 59.3 A 30.82 30.82 0 0 0 419.28 60.193 Q 418.754 60.979 418.197 61.902 A 61.644 61.644 0 0 0 417.1 63.8 A 258.465 258.465 0 0 1 415.735 66.251 A 218.815 218.815 0 0 1 412.8 71.3 Q 410.7 74.8 408.1 78 A 25.68 25.68 0 0 1 407.007 79.192 Q 405.128 81.109 403.457 81.88 A 5.142 5.142 0 0 1 401.3 82.4 A 3.501 3.501 0 0 1 401.041 82.391 Q 398.8 82.224 398.8 79.1 L 398.8 78.35 A 1.295 1.295 0 0 1 398.8 78.342 Q 398.802 78.09 398.9 77.5 A 17.793 17.793 0 0 1 399.138 76.233 A 20.776 20.776 0 0 1 400 73.4 A 48.058 48.058 0 0 1 400.71 71.639 A 37.407 37.407 0 0 1 401.65 69.6 A 75.383 75.383 0 0 1 401.772 69.357 Q 402.331 68.248 402.68 67.655 A 7.503 7.503 0 0 1 402.9 67.3 A 55.511 55.511 0 0 1 403.415 66.478 A 60.452 60.452 0 0 1 409.25 58.8 A 39.977 39.977 0 0 1 410.863 57.088 Q 412.197 55.757 413.496 54.742 A 19.114 19.114 0 0 1 416.3 52.9 Q 417.606 52.247 418.736 51.982 A 6.412 6.412 0 0 1 420.2 51.8 Q 422.766 51.8 424.062 53.579 A 5.909 5.909 0 0 1 424.9 55.3 A 2.381 2.381 0 0 0 425.127 55.346 Q 425.773 55.442 426.2 55.1 A 1.638 1.638 0 0 0 426.303 55.01 A 1.208 1.208 0 0 0 426.7 54.1 Q 426.7 53.2 426 52.5 Q 424.4 50.8 422.3 50.05 Q 420.2 49.3 417.9 49.3 A 15.8 15.8 0 0 0 413.799 49.855 A 20.14 20.14 0 0 0 409.75 51.45 Q 405.6 53.6 402.7 57.1 A 57.715 57.715 0 0 0 401.828 58.192 Q 399.993 60.549 398.624 62.831 A 32.715 32.715 0 0 0 396.2 67.7 A 37.783 37.783 0 0 0 395.563 69.446 Q 394.213 73.46 394.2 76.738 A 16.061 16.061 0 0 0 394.2 76.8 Q 394.2 80.6 395.8 82.95 A 6.732 6.732 0 0 0 396.331 83.635 A 4.712 4.712 0 0 0 400 85.3 Q 401.4 85.3 403.1 84.5 A 9.666 9.666 0 0 0 403.908 84.07 Q 405.245 83.278 406.7 81.9 A 28.247 28.247 0 0 0 407.914 80.668 A 32.422 32.422 0 0 0 410.8 77.05 Q 412.225 74.988 413.256 73.403 A 87.33 87.33 0 0 0 413.9 72.4 A 35.301 35.301 0 0 0 413.501 74.062 Q 413.252 75.23 413.127 76.26 A 16.134 16.134 0 0 0 413 78.2 A 13.428 13.428 0 0 0 413.071 79.619 Q 413.273 81.516 414.05 82.7 A 8.587 8.587 0 0 0 414.107 82.786 Q 415.138 84.316 416.5 84.9 A 8.256 8.256 0 0 0 416.844 85.039 Q 417.842 85.415 418.68 85.415 Z M 548.48 85.415 A 3.538 3.538 0 0 0 548.8 85.4 A 5.72 5.72 0 0 0 549.635 85.261 Q 550.622 85.021 551.598 84.426 A 10.307 10.307 0 0 0 553.15 83.25 Q 555.3 81.3 557.3 78.35 Q 559.3 75.4 561 72.25 A 185.99 185.99 0 0 0 561.468 71.377 Q 562.869 68.749 563.9 66.6 A 12.457 12.457 0 0 0 563.959 66.439 Q 564.137 65.944 564.184 65.668 A 1.034 1.034 0 0 0 564.2 65.5 Q 564.2 64.8 563.7 64.8 A 1.061 1.061 0 0 0 563.078 64.991 Q 562.725 65.237 562.5 65.8 Q 561.6 67.6 560.1 70.45 Q 558.6 73.3 556.8 76.1 A 41.04 41.04 0 0 1 556.571 76.452 Q 554.883 79.021 553.15 80.8 A 11.873 11.873 0 0 1 553.011 80.94 Q 551.24 82.7 549.7 82.7 Q 548.1 82.7 548.1 79.9 A 5.026 5.026 0 0 1 548.109 79.618 Q 548.137 79.13 548.25 78.3 A 116.096 116.096 0 0 1 548.318 77.812 Q 548.389 77.305 548.447 76.931 A 30.145 30.145 0 0 1 548.5 76.6 A 22.112 22.112 0 0 1 548.799 75.482 Q 549.051 74.628 549.398 73.663 A 47.962 47.962 0 0 1 550.2 71.6 Q 551.4 68.7 552.9 65.9 Q 554.4 63.1 555.75 60.9 A 40.561 40.561 0 0 1 556.381 59.902 Q 557.297 58.503 557.9 57.9 Q 556.7 58.1 555.6 57.8 Q 554.5 57.5 553.4 57.5 A 5.83 5.83 0 0 0 552.747 57.536 A 4.174 4.174 0 0 0 549.7 59.3 A 30.82 30.82 0 0 0 549.08 60.193 Q 548.554 60.979 547.997 61.902 A 61.644 61.644 0 0 0 546.9 63.8 A 258.465 258.465 0 0 1 545.535 66.251 A 218.815 218.815 0 0 1 542.6 71.3 Q 540.5 74.8 537.9 78 A 25.68 25.68 0 0 1 536.807 79.192 Q 534.928 81.109 533.257 81.88 A 5.142 5.142 0 0 1 531.1 82.4 A 3.501 3.501 0 0 1 530.841 82.391 Q 528.6 82.224 528.6 79.1 L 528.6 78.35 A 1.295 1.295 0 0 1 528.6 78.342 Q 528.602 78.09 528.7 77.5 A 17.793 17.793 0 0 1 528.938 76.233 A 20.776 20.776 0 0 1 529.8 73.4 A 48.058 48.058 0 0 1 530.51 71.639 A 37.407 37.407 0 0 1 531.45 69.6 A 75.383 75.383 0 0 1 531.572 69.357 Q 532.131 68.248 532.48 67.655 A 7.503 7.503 0 0 1 532.7 67.3 A 55.511 55.511 0 0 1 533.215 66.478 A 60.452 60.452 0 0 1 539.05 58.8 A 39.977 39.977 0 0 1 540.663 57.088 Q 541.997 55.757 543.296 54.742 A 19.114 19.114 0 0 1 546.1 52.9 Q 547.406 52.247 548.536 51.982 A 6.412 6.412 0 0 1 550 51.8 Q 552.566 51.8 553.862 53.579 A 5.909 5.909 0 0 1 554.7 55.3 A 2.381 2.381 0 0 0 554.927 55.346 Q 555.573 55.442 556 55.1 A 1.638 1.638 0 0 0 556.103 55.01 A 1.208 1.208 0 0 0 556.5 54.1 Q 556.5 53.2 555.8 52.5 Q 554.2 50.8 552.1 50.05 Q 550 49.3 547.7 49.3 A 15.8 15.8 0 0 0 543.599 49.855 A 20.14 20.14 0 0 0 539.55 51.45 Q 535.4 53.6 532.5 57.1 A 57.715 57.715 0 0 0 531.628 58.192 Q 529.793 60.549 528.424 62.831 A 32.715 32.715 0 0 0 526 67.7 A 37.783 37.783 0 0 0 525.363 69.446 Q 524.013 73.46 524 76.738 A 16.061 16.061 0 0 0 524 76.8 Q 524 80.6 525.6 82.95 A 6.732 6.732 0 0 0 526.131 83.635 A 4.712 4.712 0 0 0 529.8 85.3 Q 531.2 85.3 532.9 84.5 A 9.666 9.666 0 0 0 533.708 84.07 Q 535.045 83.278 536.5 81.9 A 28.247 28.247 0 0 0 537.714 80.668 A 32.422 32.422 0 0 0 540.6 77.05 Q 542.025 74.988 543.056 73.403 A 87.33 87.33 0 0 0 543.7 72.4 A 35.301 35.301 0 0 0 543.301 74.062 Q 543.052 75.23 542.927 76.26 A 16.134 16.134 0 0 0 542.8 78.2 A 13.428 13.428 0 0 0 542.871 79.619 Q 543.073 81.516 543.85 82.7 A 8.587 8.587 0 0 0 543.907 82.786 Q 544.938 84.316 546.3 84.9 A 8.256 8.256 0 0 0 546.644 85.039 Q 547.642 85.415 548.48 85.415 Z M 335.8 50.5 L 342 50.5 Q 340.3 51.8 338.95 53.35 Q 337.6 54.9 335.6 59 L 334.9 60.4 Q 334.2 61.8 333.15 63.95 Q 332.1 66.1 331.05 68.3 Q 330.006 70.487 329.308 71.982 A 208.92 208.92 0 0 0 329.3 72 A 46.378 46.378 0 0 0 328.607 73.561 Q 327.881 75.29 327.6 76.45 Q 327.2 78.1 327.2 79.5 Q 327.2 82.8 329.4 82.8 A 3.909 3.909 0 0 0 330.998 82.419 Q 332.348 81.813 333.946 80.239 A 24.145 24.145 0 0 0 335.2 78.9 Q 338 75.6 340.7 71 Q 343.4 66.4 345.85 61.5 A 1154.438 1154.438 0 0 0 348.026 57.126 Q 349.191 54.772 350.2 52.7 A 3.731 3.731 0 0 1 352.843 50.629 A 5.769 5.769 0 0 1 354.1 50.5 L 359.6 50.5 Q 358.1 51.7 357.1 52.75 A 9.964 9.964 0 0 0 356.265 53.761 Q 355.699 54.539 355.15 55.55 Q 354.423 56.89 353.314 59.08 A 324.893 324.893 0 0 0 352.6 60.5 Q 351.3 63.2 349.85 66.25 Q 348.4 69.3 347.3 72 A 38.103 38.103 0 0 0 346.691 73.59 Q 346.106 75.231 345.9 76.4 A 33.487 33.487 0 0 1 345.85 76.869 Q 345.798 77.32 345.747 77.638 A 7.292 7.292 0 0 1 345.7 77.9 Q 345.6 78.4 345.6 79 Q 345.6 80.9 346.25 81.7 A 2.435 2.435 0 0 0 346.749 82.172 A 1.804 1.804 0 0 0 347.8 82.5 Q 349.626 82.5 351.48 80.938 A 12.231 12.231 0 0 0 352.65 79.8 Q 355.062 77.142 357.28 73.322 A 52.232 52.232 0 0 0 357.35 73.2 A 98.24 98.24 0 0 0 359.676 68.939 A 77.58 77.58 0 0 0 361.2 65.8 A 5.536 5.536 0 0 1 361.44 65.399 Q 361.856 64.769 362.221 64.707 A 0.471 0.471 0 0 1 362.3 64.7 Q 362.9 64.7 362.9 65.4 A 1.593 1.593 0 0 1 362.846 65.794 Q 362.755 66.152 362.508 66.586 A 5.151 5.151 0 0 1 362.5 66.6 A 104.761 104.761 0 0 1 361.442 68.834 Q 360.885 69.976 360.24 71.242 A 187.472 187.472 0 0 1 359.8 72.1 Q 358.2 75.2 356.2 78.2 A 24.618 24.618 0 0 1 353.893 81.167 A 19.534 19.534 0 0 1 351.8 83.15 A 9.006 9.006 0 0 1 349.401 84.574 A 7.629 7.629 0 0 1 346.6 85.1 Q 344.1 85.1 342.5 83.25 A 6.07 6.07 0 0 1 341.306 81.033 Q 340.9 79.714 340.9 78 Q 340.9 75.3 341.9 72.2 A 59.81 59.81 0 0 1 338.807 77.075 A 67.139 67.139 0 0 1 338 78.2 A 27.777 27.777 0 0 1 335.504 81.167 A 21.831 21.831 0 0 1 333.3 83.15 Q 331.069 84.89 328.839 85.078 A 6.43 6.43 0 0 1 328.3 85.1 A 6.097 6.097 0 0 1 327.412 85.03 Q 326.966 84.964 326.464 84.836 A 13.531 13.531 0 0 1 325.65 84.6 A 5.773 5.773 0 0 1 323.253 83.084 A 7.056 7.056 0 0 1 322.95 82.75 A 4.242 4.242 0 0 1 322.184 81.371 Q 321.968 80.747 321.874 79.98 A 10.473 10.473 0 0 1 321.8 78.7 A 10.947 10.947 0 0 1 322.973 73.803 A 12.71 12.71 0 0 1 323.05 73.65 Q 324.3 71.2 325.4 68.9 A 1.048 1.048 0 0 1 325.108 68.856 Q 324.936 68.806 324.75 68.7 Q 324.4 68.5 324.4 68.1 A 1.703 1.703 0 0 1 324.517 67.488 A 2.091 2.091 0 0 1 324.6 67.3 Q 325 66.5 325.5 65.6 Q 326 64.7 326.4 63.7 Q 327.9 60.6 329.4 57.75 A 345.039 345.039 0 0 0 330.636 55.381 Q 331.195 54.299 331.683 53.332 A 192.341 192.341 0 0 0 332 52.7 Q 332.931 50.839 335.006 50.552 A 5.802 5.802 0 0 1 335.8 50.5 Z M 451.125 83.55 A 4.866 4.866 0 0 0 454.7 85.1 A 8.373 8.373 0 0 0 457.687 84.555 A 9.855 9.855 0 0 0 460.3 83.05 A 20.378 20.378 0 0 0 462.255 81.288 A 24.434 24.434 0 0 0 465 77.9 A 60.175 60.175 0 0 0 465.768 76.738 A 53.462 53.462 0 0 0 468.65 71.7 A 174.476 174.476 0 0 0 468.803 71.394 Q 470.245 68.496 471.1 66.5 A 1.639 1.639 0 0 0 471.175 66.376 Q 471.231 66.274 471.262 66.179 A 0.745 0.745 0 0 0 471.3 65.95 L 471.3 65.6 A 2.078 2.078 0 0 0 471.283 65.32 Q 471.198 64.7 470.7 64.7 A 0.855 0.855 0 0 0 470.432 64.743 Q 469.901 64.917 469.5 65.8 Q 468.8 67.4 467.4 70.15 A 63.269 63.269 0 0 1 466.675 71.531 A 72.231 72.231 0 0 1 464.2 75.75 A 32.133 32.133 0 0 1 462.363 78.375 A 23.738 23.738 0 0 1 460.45 80.55 Q 458.5 82.5 456.6 82.5 A 3.257 3.257 0 0 1 455.867 82.423 A 1.951 1.951 0 0 1 454.6 81.55 A 3.746 3.746 0 0 1 454.132 80.442 A 4.74 4.74 0 0 1 454 79.3 A 9.817 9.817 0 0 1 454.041 78.42 Q 454.11 77.658 454.293 76.796 A 20.637 20.637 0 0 1 454.75 75.05 A 73.739 73.739 0 0 1 455.008 74.224 Q 455.572 72.457 455.9 71.8 A 90.433 90.433 0 0 1 456.868 69.543 Q 458.034 66.916 459.65 63.65 Q 462 58.9 464.75 53.55 Q 467.5 48.2 470.35 42.95 Q 473.2 37.7 475.7 33.3 A 252.414 252.414 0 0 1 475.82 33.088 Q 478.245 28.831 480.05 26.05 Q 481.9 23.2 482.5 22.6 A 9.735 9.735 0 0 1 481.753 22.629 A 10.435 10.435 0 0 1 479.85 22.45 A 18.654 18.654 0 0 0 479.766 22.435 Q 478.466 22.2 477.4 22.2 Q 475.5 22.2 474.15 23.15 A 3.965 3.965 0 0 0 473.453 23.799 Q 472.754 24.604 472.018 26.054 A 26.361 26.361 0 0 0 471.3 27.6 Q 470.6 29.1 469.3 31.95 Q 468 34.8 466.3 38.2 Q 464.6 41.6 462.9 45.05 Q 461.2 48.5 459.7 51.3 Q 456.5 49.4 452.9 49.4 A 15.324 15.324 0 0 0 449.543 49.774 A 17.753 17.753 0 0 0 445 51.5 Q 441.1 53.6 438.1 57.1 A 32.834 32.834 0 0 0 436.034 59.856 A 44.681 44.681 0 0 0 434.05 63.1 Q 432.1 66.6 430.85 70.3 A 30.038 30.038 0 0 0 430.699 70.76 Q 429.6 74.194 429.6 77.1 A 11.547 11.547 0 0 0 429.79 79.243 A 8.42 8.42 0 0 0 430.75 81.9 A 5.568 5.568 0 0 0 432.826 83.951 A 8.068 8.068 0 0 0 434.6 84.7 A 9.143 9.143 0 0 0 435.344 84.871 A 7.458 7.458 0 0 0 436.7 85 A 7.92 7.92 0 0 0 439.091 84.64 A 8.422 8.422 0 0 0 441.95 83.05 A 21.781 21.781 0 0 0 442.242 82.804 A 23.277 23.277 0 0 0 446.15 78.45 A 201.128 201.128 0 0 0 446.157 78.44 Q 447.078 77.12 447.888 75.912 A 117.119 117.119 0 0 0 449.4 73.6 A 11.907 11.907 0 0 0 449.278 74.035 A 10.367 10.367 0 0 0 449 75.55 Q 448.9 76.5 448.9 77.4 A 11.445 11.445 0 0 0 448.966 78.651 A 8.911 8.911 0 0 0 449.3 80.3 A 13.421 13.421 0 0 0 449.51 80.928 Q 449.827 81.803 450.2 82.4 A 7.761 7.761 0 0 0 451.125 83.55 Z M 165.814 85.251 A 12.198 12.198 0 0 0 167.8 85.4 Q 171.6 85.4 174.55 83.25 Q 177.5 81.1 179.65 77.95 A 48.417 48.417 0 0 0 180.681 76.375 A 41.836 41.836 0 0 0 183.25 71.65 Q 184.7 68.5 185.6 66.5 Q 185.759 66.181 185.834 65.891 A 1.97 1.97 0 0 0 185.9 65.4 A 1.292 1.292 0 0 0 185.897 65.317 Q 185.873 64.937 185.616 64.837 A 0.589 0.589 0 0 0 185.4 64.8 A 0.892 0.892 0 0 0 185.122 64.845 Q 184.579 65.022 184.1 65.9 A 118.68 118.68 0 0 1 183.579 66.928 Q 182.643 68.756 181.15 71.55 Q 179.2 75.2 176.8 78.7 A 18.518 18.518 0 0 1 176.599 78.971 Q 175.088 80.972 173.4 82.05 A 9.882 9.882 0 0 1 172.95 82.322 Q 171.398 83.2 170 83.2 A 3.593 3.593 0 0 1 167.965 82.595 A 4.549 4.549 0 0 1 166.95 81.65 A 4.822 4.822 0 0 1 166.188 80.27 Q 165.932 79.571 165.81 78.704 A 12.274 12.274 0 0 1 165.7 77 A 14.107 14.107 0 0 1 165.739 75.977 Q 165.796 75.191 165.937 74.294 A 30.738 30.738 0 0 1 166.3 72.4 Q 166.8 70.6 167.45 68.85 A 78.719 78.719 0 0 0 167.832 67.8 Q 168.011 67.297 168.165 66.839 A 42.418 42.418 0 0 0 168.5 65.8 A 79.19 79.19 0 0 0 171.401 62.996 A 68.286 68.286 0 0 0 180.75 51.2 Q 185.6 43.4 189.1 35.6 Q 190.4 32.8 190.95 30.6 Q 191.294 29.225 191.423 28.085 A 11.472 11.472 0 0 0 191.5 26.8 A 9.14 9.14 0 0 0 191.435 25.678 Q 191.355 25.028 191.174 24.5 A 3.631 3.631 0 0 0 190.55 23.35 A 3.04 3.04 0 0 0 189.193 22.39 A 3.592 3.592 0 0 0 188 22.2 A 4.21 4.21 0 0 0 187.793 22.205 Q 185.864 22.3 183.35 24.15 A 13.319 13.319 0 0 0 182.227 25.078 Q 181.171 26.05 180.174 27.349 A 26.298 26.298 0 0 0 178.4 30 Q 175.5 34.9 172.55 41.05 Q 169.6 47.2 167.15 53.55 A 160.549 160.549 0 0 0 165.169 58.963 A 127.164 127.164 0 0 0 163.1 65.5 A 110.385 110.385 0 0 0 162.643 67.045 Q 162.405 67.871 162.147 68.805 A 233.348 233.348 0 0 0 161.5 71.2 A 28.911 28.911 0 0 0 161.106 72.888 A 24.838 24.838 0 0 0 160.6 77.8 A 11.551 11.551 0 0 0 160.706 79.387 A 8.885 8.885 0 0 0 162.1 83.15 A 4.42 4.42 0 0 0 164.009 84.725 Q 164.798 85.082 165.814 85.251 Z M 142.8 72.1 L 149.5 55 Q 149.8 54.2 149.8 53.6 A 3.378 3.378 0 0 0 149.663 52.622 A 2.88 2.88 0 0 0 149.3 51.85 L 148.6 50.8 L 154.1 50.6 A 8.467 8.467 0 0 1 154.366 50.587 Q 155.616 50.543 156.21 50.923 A 1.366 1.366 0 0 1 156.25 50.95 Q 156.695 51.259 156.836 51.637 A 1.037 1.037 0 0 1 156.9 52 Q 156.9 52.6 156.2 54.2 L 147.9 73.7 L 147.35 74.95 Q 146.882 76.014 146.74 76.462 A 2.347 2.347 0 0 0 146.7 76.6 A 192.59 192.59 0 0 1 146.595 77.124 Q 146.389 78.136 146.306 78.475 A 5.285 5.285 0 0 1 146.3 78.5 A 11.198 11.198 0 0 0 146.266 78.64 Q 146.2 78.919 146.2 79 L 146.2 79.8 A 4.319 4.319 0 0 0 146.324 80.861 A 3.311 3.311 0 0 0 146.85 82 A 1.987 1.987 0 0 0 147.809 82.702 Q 148.35 82.9 149.1 82.9 A 4.066 4.066 0 0 0 149.962 82.801 Q 150.378 82.711 150.836 82.538 A 8.65 8.65 0 0 0 151.4 82.3 Q 152.621 81.737 153.224 81.173 A 3.068 3.068 0 0 0 153.3 81.1 A 26.996 26.996 0 0 0 155.4 78.613 Q 156.386 77.303 157.363 75.732 A 51.31 51.31 0 0 0 158.25 74.25 Q 160.7 70 162.8 65.8 Q 163.2 64.8 163.8 64.8 Q 164.3 64.8 164.3 65.5 A 1.59 1.59 0 0 1 164.277 65.753 Q 164.217 66.122 164 66.7 A 599.041 599.041 0 0 1 163.469 67.813 Q 162.638 69.547 161.536 71.827 A 1624.635 1624.635 0 0 1 161.5 71.9 A 49.722 49.722 0 0 1 158.454 77.287 A 55.017 55.017 0 0 1 157.95 78.05 A 26.718 26.718 0 0 1 155.673 80.995 A 20.907 20.907 0 0 1 153.5 83.1 A 9.019 9.019 0 0 1 151.203 84.519 A 7.466 7.466 0 0 1 148.3 85.1 A 9.94 9.94 0 0 1 146.405 84.933 Q 145.362 84.73 144.571 84.281 A 4.429 4.429 0 0 1 143.1 82.95 Q 141.6 80.8 141.6 78 A 13.74 13.74 0 0 1 141.908 75.144 A 15.172 15.172 0 0 1 141.95 74.95 A 22.142 22.142 0 0 1 142.446 73.11 A 18.168 18.168 0 0 1 142.8 72.1 Z M 467.1 72.1 L 473.8 55 Q 474.1 54.2 474.1 53.6 A 3.378 3.378 0 0 0 473.963 52.622 A 2.88 2.88 0 0 0 473.6 51.85 L 472.9 50.8 L 478.4 50.6 A 8.467 8.467 0 0 1 478.666 50.587 Q 479.916 50.543 480.51 50.923 A 1.366 1.366 0 0 1 480.55 50.95 Q 480.995 51.259 481.136 51.637 A 1.037 1.037 0 0 1 481.2 52 Q 481.2 52.6 480.5 54.2 L 472.2 73.7 L 471.65 74.95 Q 471.182 76.014 471.04 76.462 A 2.347 2.347 0 0 0 471 76.6 A 192.59 192.59 0 0 1 470.895 77.124 Q 470.689 78.136 470.606 78.475 A 5.285 5.285 0 0 1 470.6 78.5 A 11.198 11.198 0 0 0 470.566 78.64 Q 470.5 78.919 470.5 79 L 470.5 79.8 A 4.319 4.319 0 0 0 470.624 80.861 A 3.311 3.311 0 0 0 471.15 82 A 1.987 1.987 0 0 0 472.109 82.702 Q 472.65 82.9 473.4 82.9 A 4.066 4.066 0 0 0 474.262 82.801 Q 474.678 82.711 475.136 82.538 A 8.65 8.65 0 0 0 475.7 82.3 Q 476.921 81.737 477.524 81.173 A 3.068 3.068 0 0 0 477.6 81.1 A 26.996 26.996 0 0 0 479.7 78.613 Q 480.686 77.303 481.663 75.732 A 51.31 51.31 0 0 0 482.55 74.25 Q 485 70 487.1 65.8 Q 487.5 64.8 488.1 64.8 Q 488.6 64.8 488.6 65.5 A 1.59 1.59 0 0 1 488.577 65.753 Q 488.517 66.122 488.3 66.7 A 599.041 599.041 0 0 1 487.769 67.813 Q 486.938 69.547 485.836 71.827 A 1624.635 1624.635 0 0 1 485.8 71.9 A 49.722 49.722 0 0 1 482.754 77.287 A 55.017 55.017 0 0 1 482.25 78.05 A 26.718 26.718 0 0 1 479.973 80.995 A 20.907 20.907 0 0 1 477.8 83.1 A 9.019 9.019 0 0 1 475.503 84.519 A 7.466 7.466 0 0 1 472.6 85.1 A 9.94 9.94 0 0 1 470.705 84.933 Q 469.662 84.73 468.871 84.281 A 4.429 4.429 0 0 1 467.4 82.95 Q 465.9 80.8 465.9 78 A 13.74 13.74 0 0 1 466.208 75.144 A 15.172 15.172 0 0 1 466.25 74.95 A 22.142 22.142 0 0 1 466.746 73.11 A 18.168 18.168 0 0 1 467.1 72.1 Z M 41.8 38.4 Q 47 38.4 53.4 37.8 A 56.614 56.614 0 0 0 60.47 36.776 Q 64.152 35.989 67.275 34.719 A 34.108 34.108 0 0 0 67.8 34.5 A 30.714 30.714 0 0 0 72.294 32.157 Q 74.734 30.599 76.497 28.702 A 18.024 18.024 0 0 0 77.2 27.9 A 14.42 14.42 0 0 0 79.857 23.151 A 13.4 13.4 0 0 0 80.5 19 A 8.389 8.389 0 0 0 79.965 15.939 Q 79.177 13.91 77.227 12.55 A 9.65 9.65 0 0 0 76.85 12.3 Q 73.526 10.206 68.585 10.019 A 26.031 26.031 0 0 0 67.6 10 A 41.122 41.122 0 0 0 56.62 11.426 A 36.176 36.176 0 0 0 50.65 13.65 Q 43 17.3 36.65 23.2 Q 30.3 29.1 24.6 35.9 A 48.74 48.74 0 0 0 33.783 37.922 A 64.475 64.475 0 0 0 41.8 38.4 Z M 169.3 62.6 A 63.994 63.994 0 0 0 173.722 57.526 A 78.734 78.734 0 0 0 176.3 54.05 Q 179.7 49.2 182.65 43.95 A 113.456 113.456 0 0 0 185.668 38.218 A 88.564 88.564 0 0 0 187.6 34 A 17.311 17.311 0 0 0 188.444 31.796 A 20.615 20.615 0 0 0 188.75 30.7 A 19.404 19.404 0 0 0 189.006 29.534 Q 189.109 28.978 189.157 28.495 A 8.021 8.021 0 0 0 189.2 27.7 A 4.204 4.204 0 0 0 189.176 27.233 Q 189.071 26.3 188.5 26.3 Q 188.128 26.3 187.412 26.947 A 8.12 8.12 0 0 0 187.3 27.05 A 8.378 8.378 0 0 0 186.81 27.555 Q 186.346 28.072 185.759 28.845 A 39.344 39.344 0 0 0 185.2 29.6 Q 183.3 32.1 181.05 36.4 A 226.122 226.122 0 0 0 177.933 42.596 A 266.031 266.031 0 0 0 176.5 45.6 Q 174.2 50.5 172.3 55.05 Q 170.4 59.6 169.3 62.6 Z M 471.2 115 A 12.103 12.103 0 0 0 475.176 114.3 A 16.755 16.755 0 0 0 478 113 A 35.685 35.685 0 0 0 482.928 109.583 A 42.268 42.268 0 0 0 484.8 107.95 A 82.362 82.362 0 0 0 489.977 102.732 A 74.024 74.024 0 0 0 490.85 101.75 A 98.658 98.658 0 0 0 492.765 99.493 Q 493.685 98.373 494.445 97.366 A 47.112 47.112 0 0 0 495.3 96.2 A 12.462 12.462 0 0 0 495.689 95.619 Q 496.025 95.088 496.4 94.4 A 60.552 60.552 0 0 1 497.3 92.806 A 54.344 54.344 0 0 1 497.6 92.3 Q 492.7 93.6 486.85 95.15 Q 481.617 96.537 477.624 98.203 A 48.734 48.734 0 0 0 476.7 98.6 A 19.481 19.481 0 0 0 472.295 101.115 A 16.173 16.173 0 0 0 469.15 104.3 Q 467.457 106.577 466.807 108.552 A 7.502 7.502 0 0 0 466.4 110.9 Q 466.4 112.7 467.55 113.85 A 3.465 3.465 0 0 0 468.815 114.636 Q 469.365 114.841 470.05 114.93 A 8.89 8.89 0 0 0 471.2 115 Z M 437.4 82.1 A 3.351 3.351 0 0 0 438.394 81.933 Q 439.291 81.653 440.401 80.904 A 14.756 14.756 0 0 0 440.9 80.55 A 13.52 13.52 0 0 0 442.379 79.266 Q 443.102 78.549 443.857 77.632 A 34.333 34.333 0 0 0 445.4 75.6 A 122.269 122.269 0 0 0 447.613 72.319 Q 448.581 70.835 449.628 69.155 A 246.59 246.59 0 0 0 451.8 65.6 A 239.728 239.728 0 0 0 457.144 56.206 A 269.078 269.078 0 0 0 458.9 52.9 Q 457.6 51.7 455.9 51.7 Q 453.84 51.7 451.429 53.107 A 18.255 18.255 0 0 0 449.65 54.3 A 34.674 34.674 0 0 0 445.832 57.668 A 45.321 45.321 0 0 0 442.95 60.9 A 54.039 54.039 0 0 0 438.978 66.447 A 46.463 46.463 0 0 0 437.5 69 Q 436.217 71.396 435.556 73.425 A 17.869 17.869 0 0 0 435.35 74.1 Q 434.7 76.4 434.7 78.1 A 8.769 8.769 0 0 0 434.803 79.51 Q 435.21 81.997 437.229 82.096 A 3.475 3.475 0 0 0 437.4 82.1 Z M 156.4 44.5 Q 154.9 44.5 153.95 43.45 Q 153 42.4 153 40.9 A 4.308 4.308 0 0 1 154.275 37.822 A 5.811 5.811 0 0 1 154.5 37.6 A 5.609 5.609 0 0 1 155.794 36.681 A 4.392 4.392 0 0 1 157.8 36.2 A 4.17 4.17 0 0 1 159.001 36.365 A 3.28 3.28 0 0 1 160.4 37.2 A 3.27 3.27 0 0 1 161.4 39.557 A 3.89 3.89 0 0 1 161.4 39.6 A 4.532 4.532 0 0 1 160.332 42.522 A 6.167 6.167 0 0 1 159.9 43 A 5.227 5.227 0 0 1 158.357 44.089 A 4.698 4.698 0 0 1 156.4 44.5 Z M 480.7 44.5 Q 479.2 44.5 478.25 43.45 Q 477.3 42.4 477.3 40.9 A 4.308 4.308 0 0 1 478.575 37.822 A 5.811 5.811 0 0 1 478.8 37.6 A 5.609 5.609 0 0 1 480.094 36.681 A 4.392 4.392 0 0 1 482.1 36.2 A 4.17 4.17 0 0 1 483.301 36.365 A 3.28 3.28 0 0 1 484.7 37.2 A 3.27 3.27 0 0 1 485.7 39.557 A 3.89 3.89 0 0 1 485.7 39.6 A 4.532 4.532 0 0 1 484.632 42.522 A 6.167 6.167 0 0 1 484.2 43 A 5.227 5.227 0 0 1 482.657 44.089 A 4.698 4.698 0 0 1 480.7 44.5 Z M 311.7 12.5 Q 314.8 12 316.1 11.3 A 11.397 11.397 0 0 0 316.938 10.775 Q 317.326 10.506 317.629 10.238 A 4.615 4.615 0 0 0 318.15 9.7 A 4.448 4.448 0 0 0 318.461 9.272 Q 318.759 8.799 318.795 8.406 A 1.161 1.161 0 0 0 318.8 8.3 Q 318.8 7.507 318.17 7.343 A 1.473 1.473 0 0 0 317.8 7.3 Q 316.989 7.3 315.853 8.113 A 9.01 9.01 0 0 0 315.6 8.3 A 8.484 8.484 0 0 0 314.771 8.968 Q 314.385 9.318 313.985 9.751 A 16.798 16.798 0 0 0 313.5 10.3 Q 312.4 11.6 311.7 12.5 Z" vector-effect="non-scaling-stroke"/></g></svg>