<?xml version="1.0"?>
<svg version="1.1" xmlns="http://www.w3.org/2000/svg" width="280" height="60" style=""><path fill="#ff825c" d="M34.921875,47.98828125l-5.15625,0l-5.6103515625-9.0234375l-1.9189453125,1.376953125l0,7.646484375l-4.541015625,0l0-21.416015625l4.541015625,0l0,9.7998046875l1.787109375-2.51953125l5.80078125-7.2802734375l5.0390625,0l-7.470703125,9.4775390625z M39.679248046875,47.98828125l0-21.416015625l4.541015625,0l0,21.416015625l-4.541015625,0z M64.78330078125,47.98828125l-1.552734375-5.09765625l-7.8076171875,0l-1.552734375,5.09765625l-4.892578125,0l7.55859375-21.50390625l5.5517578125,0l7.587890625,21.50390625l-4.892578125,0z M62.14658203125,39.08203125q-2.1533203125-6.9287109375-2.42431640625-7.8369140625t-0.38818359375-1.435546875q-0.4833984375,1.875-2.7685546875,9.2724609375l5.5810546875,0z M83.500634765625,47.98828125l-5.15625-16.8017578125l-0.1318359375,0q0.2783203125,5.126953125,0.2783203125,6.8408203125l0,9.9609375l-4.0576171875,0l0-21.416015625l6.181640625,0l5.068359375,16.376953125l0.087890625,0l5.3759765625-16.376953125l6.181640625,0l0,21.416015625l-4.2333984375,0l0-10.13671875q0-0.7177734375,0.02197265625-1.6552734375t0.19775390625-4.98046875l-0.1318359375,0l-5.5224609375,16.7724609375l-4.16015625,0z M104.7814453125,47.98828125l0-21.416015625l4.541015625,0l0,21.416015625l-4.541015625,0z M129.41674804688,42.041015625q0,2.900390625-2.08740234375,4.5703125t-5.80810546875,1.669921875q-3.427734375,0-6.064453125-1.2890625l0-4.21875q2.16796875,0.966796875,3.66943359375,1.3623046875t2.74658203125,0.3955078125q1.494140625,0,2.29248046875-0.5712890625t0.79833984375-1.69921875q0-0.6298828125-0.3515625-1.12060546875t-1.03271484375-0.94482421875t-2.77587890625-1.4501953125q-1.962890625-0.9228515625-2.9443359375-1.7724609375t-1.5673828125-1.9775390625t-0.5859375-2.63671875q0-2.841796875,1.92626953125-4.4677734375t5.32470703125-1.6259765625q1.669921875,0,3.18603515625,0.3955078125t3.17138671875,1.11328125l-1.46484375,3.5302734375q-1.7138671875-0.703125-2.83447265625-0.9814453125t-2.20458984375-0.2783203125q-1.2890625,0-1.9775390625,0.6005859375t-0.6884765625,1.5673828125q0,0.6005859375,0.2783203125,1.04736328125t0.88623046875,0.8642578125t2.87841796875,1.50146484375q3.0029296875,1.435546875,4.1162109375,2.87841796875t1.11328125,3.53759765625z"/><path fill="#18216d" d="M147.897265625,33.53759765625q0,2.64404296875-1.505126953125,4.05029296875t-4.346923828125,1.40625l-3.0322265625,0l0-10.7080078125l3.36181640625,0q2.6220703125,0,4.072265625,1.38427734375t1.4501953125,3.8671875z M145.5388671875,33.59619140625q0-3.44970703125-3.046875-3.44970703125l-1.20849609375,0l0,6.97265625l0.97412109375,0q3.28125,0,3.28125-3.52294921875z M154.48005371094,32.6953125l2.23388671875-4.4091796875l2.4462890625,0l-3.55224609375,6.54052734375l0,4.16748046875l-2.255859375,0l0-4.09423828125l-3.55224609375-6.61376953125l2.4609375,0z M171.03842773437,38.994140625l-2.8857421875,0l-4.658203125-8.1005859375l-0.06591796875,0q0.13916015625,2.14599609375,0.13916015625,3.0615234375l0,5.0390625l-2.02880859375,0l0-10.7080078125l2.86376953125,0l4.65087890625,8.02001953125l0.05126953125,0q-0.10986328125-2.08740234375-0.10986328125-2.95166015625l0-5.068359375l2.04345703125,0l0,10.7080078125z M181.31994628906,38.994140625l-0.7763671875-2.548828125l-3.90380859375,0l-0.7763671875,2.548828125l-2.4462890625,0l3.779296875-10.751953125l2.77587890625,0l3.7939453125,10.751953125l-2.4462890625,0z M180.00158691406,34.541015625q-1.07666015625-3.46435546875-1.212158203125-3.91845703125t-0.194091796875-0.7177734375q-0.24169921875,0.9375-1.38427734375,4.63623046875l2.79052734375,0z M190.67861328125,38.994140625l-2.578125-8.40087890625l-0.06591796875,0q0.13916015625,2.5634765625,0.13916015625,3.42041015625l0,4.98046875l-2.02880859375,0l0-10.7080078125l3.0908203125,0l2.5341796875,8.1884765625l0.0439453125,0l2.68798828125-8.1884765625l3.0908203125,0l0,10.7080078125l-2.11669921875,0l0-5.068359375q0-0.35888671875,0.010986328125-0.82763671875t0.098876953125-2.490234375l-0.06591796875,0l-2.76123046875,8.38623046875l-2.080078125,0z M201.31901855469,38.994140625l0-10.7080078125l2.2705078125,0l0,10.7080078125l-2.2705078125,0z M211.86420898437,30.02197265625q-1.28173828125,0-1.98486328125,0.963134765625t-0.703125,2.684326171875q0,3.58154296875,2.68798828125,3.58154296875q1.1279296875,0,2.73193359375-0.56396484375l0,1.904296875q-1.318359375,0.54931640625-2.9443359375,0.54931640625q-2.33642578125,0-3.57421875-1.417236328125t-1.23779296875-4.068603515625q0-1.669921875,0.60791015625-2.926025390625t1.746826171875-1.92626953125t2.669677734375-0.670166015625q1.56005859375,0,3.134765625,0.75439453125l-0.732421875,1.845703125q-0.6005859375-0.28564453125-1.20849609375-0.498046875t-1.19384765625-0.21240234375z M220.13889160156,38.994140625l-2.23388671875,0l0-10.7080078125l6.1376953125,0l0,1.8603515625l-3.90380859375,0l0,2.76123046875l3.6328125,0l0,1.85302734375l-3.6328125,0l0,4.2333984375z M236.8876953125,33.62548828125q0,2.65869140625-1.318359375,4.0869140625t-3.779296875,1.42822265625t-3.779296875-1.42822265625t-1.318359375-4.1015625t1.322021484375-4.083251953125t3.790283203125-1.409912109375t3.775634765625,1.4208984375t1.307373046875,4.0869140625z M229.07275390625,33.62548828125q0,1.79443359375,0.68115234375,2.70263671875t2.0361328125,0.908203125q2.71728515625,0,2.71728515625-3.61083984375q0-3.6181640625-2.70263671875-3.6181640625q-1.35498046875,0-2.04345703125,0.911865234375t-0.6884765625,2.706298828125z M242.40847167969,33.03955078125l0.732421875,0q1.07666015625,0,1.58935546875-0.35888671875t0.5126953125-1.1279296875q0-0.76171875-0.523681640625-1.083984375t-1.622314453125-0.322265625l-0.6884765625,0l0,2.89306640625z M242.40847167969,34.88525390625l0,4.10888671875l-2.2705078125,0l0-10.7080078125l3.1201171875,0q2.1826171875,0,3.22998046875,0.794677734375t1.04736328125,2.413330078125q0,0.94482421875-0.52001953125,1.680908203125t-1.47216796875,1.153564453125q2.4169921875,3.61083984375,3.1494140625,4.66552734375l-2.51953125,0l-2.55615234375-4.10888671875l-1.20849609375,0z M255.60502929687,38.994140625l-2.578125-8.40087890625l-0.06591796875,0q0.13916015625,2.5634765625,0.13916015625,3.42041015625l0,4.98046875l-2.02880859375,0l0-10.7080078125l3.0908203125,0l2.5341796875,8.1884765625l0.0439453125,0l2.68798828125-8.1884765625l3.0908203125,0l0,10.7080078125l-2.11669921875,0l0-5.068359375q0-0.35888671875,0.010986328125-0.82763671875t0.098876953125-2.490234375l-0.06591796875,0l-2.76123046875,8.38623046875l-2.080078125,0z M272.56623535156,36.0205078125q0,1.4501953125-1.043701171875,2.28515625t-2.904052734375,0.8349609375q-1.7138671875,0-3.0322265625-0.64453125l0-2.109375q1.083984375,0.4833984375,1.834716796875,0.68115234375t1.373291015625,0.19775390625q0.7470703125,0,1.146240234375-0.28564453125t0.399169921875-0.849609375q0-0.31494140625-0.17578125-0.560302734375t-0.516357421875-0.472412109375t-1.387939453125-0.72509765625q-0.9814453125-0.46142578125-1.47216796875-0.88623046875t-0.78369140625-0.98876953125t-0.29296875-1.318359375q0-1.4208984375,0.963134765625-2.23388671875t2.662353515625-0.81298828125q0.8349609375,0,1.593017578125,0.19775390625t1.585693359375,0.556640625l-0.732421875,1.76513671875q-0.85693359375-0.3515625-1.417236328125-0.49072265625t-1.102294921875-0.13916015625q-0.64453125,0-0.98876953125,0.30029296875t-0.34423828125,0.78369140625q0,0.30029296875,0.13916015625,0.523681640625t0.443115234375,0.43212890625t1.439208984375,0.750732421875q1.50146484375,0.7177734375,2.05810546875,1.439208984375t0.556640625,1.768798828125z"/></svg>
